<svg xmlns="http://www.w3.org/2000/svg" viewBox="0 0 1060.85 355.99"><defs><style>.cls-1{fill:#fff;}.cls-2{fill:#353b59;}.cls-3{fill:#718cff;}</style></defs><title>rasterfoundry_RGB_left_darkbg</title><g id="Layer_2" data-name="Layer 2"><g id="Layer_1-2" data-name="Layer 1"><path class="cls-1" d="M381.58,97.28V150h-24V2.07h56.13q50.1,0,50.09,47.06,0,31.53-24.17,42.76L464.06,150H437.72L416.34,97.28Zm57.65-47.93q0-26.55-25.48-26.55H381.58V76.56h32.61q13,0,19-7.45T439.23,49.35Z"/><path class="cls-1" d="M559.5,75.26v49.23c.13,3.17,1,5.51,2.47,7s3.86,2.49,7,2.92l-.65,17.92q-18.55,0-28.71-8a82.08,82.08,0,0,1-34.76,8q-32.17,0-32.18-34.33,0-16.4,8.75-23.75t26.89-8.85L536.17,83V75.26c0-5.75-1.25-9.78-3.78-12.09s-6.22-3.46-11.11-3.46q-13.83,0-34.55,1.73l-6.91.44L479,45.25q23.54-5.61,43.29-5.62t28.5,8.54Q559.5,56.71,559.5,75.26ZM511.13,102q-14.89,1.29-14.9,16.19t13.17,14.9a83.21,83.21,0,0,0,22.89-3.46l3.88-1.29V99.66Z"/><path class="cls-1" d="M658.55,64.25q-25.47-3.45-36.91-3.46t-15.88,2.7q-4.43,2.7-4.42,8.53t4.86,8.2q4.84,2.39,22.88,5.51t25.58,9.83q7.56,6.69,7.56,23.74t-10.9,25q-10.91,8-31.85,8-13.17,0-33.25-3.67l-6.69-1.08.86-19.64q25.9,3.45,37.36,3.45t16.3-2.81q4.86-2.81,4.85-9.29t-4.64-9Q629.63,107.87,612,105t-25.81-9.18Q578,89.51,578,72.89t11.33-24.83q11.34-8.2,29-8.2,13.83,0,33.9,3.45L659,44.6Z"/><path class="cls-1" d="M737.07,62.09H707.28v47.5q0,13.18,1.94,17.49c1.3,2.88,4.6,4.32,9.93,4.32l17.71-.65,1.08,18.79q-14.48,2.81-22,2.8-18.35,0-25.15-8.42T684,112.18V62.09H670.14V42H684V10.7h23.32V42h29.79Z"/><path class="cls-1" d="M826.35,130.54l6-.65.43,17.48q-24.62,5-43.62,5-24,0-34.43-13.17T744.3,97.07q0-57.43,46.86-57.44,45.35,0,45.34,49.45L835,105.92H768.05c.15,8.93,2.08,15.47,5.84,19.65s10.71,6.26,20.93,6.26S815.55,131.4,826.35,130.54Zm-13-42.76q0-16-5.07-22.34t-17.16-6.37q-12.1,0-17.6,6.69t-5.72,22Z"/><path class="cls-1" d="M851.62,150V42h23.31V55q18.35-11.88,36.7-15.34V63.17a151.94,151.94,0,0,0-31.73,9.5l-4.76,1.94V150Z"/><path class="cls-1" d="M357.62,309.56V161.67h91.76v20.94h-67.8v49.87h56.36v21H381.58v56.13Z"/><path class="cls-1" d="M465.2,213.27q11.13-14,37-14t37,14q11.12,14,11.12,42.1t-10.79,42.32q-10.82,14.25-37.36,14.25t-37.35-14.25q-10.8-14.25-10.79-42.32T465.2,213.27Zm17.6,70.17q5,8.64,19.43,8.64t19.44-8.64q5-8.62,5-28.28t-5.29-27.86q-5.28-8.2-19.11-8.2t-19.1,8.2q-5.29,8.22-5.29,27.86T482.8,283.44Z"/><path class="cls-1" d="M632.06,201.61h23.32v108H632.06v-6.69q-15.76,9.08-29.15,9.07-22.24,0-29.79-12t-7.56-42V201.61h23.53v56.57q0,19.43,3.24,26.12t15.12,6.7a52,52,0,0,0,21.37-4.32l3.24-1.3Z"/><path class="cls-1" d="M699.6,309.56H676.06V201.61h23.32v6.7q15.76-9.08,29.8-9.07,21.59,0,29.47,12.2t7.88,40.26v57.86H743.21V252.35q0-17.49-3.78-24.83T724,220.18a53.54,53.54,0,0,0-21.16,4.32l-3.23,1.29Z"/><path class="cls-1" d="M875.37,156.7V309.56H852V304q-15.76,8-28.93,8-21.15,0-31-12.74t-9.82-42.74q0-30,10.9-43.62t34-13.6q7.77,0,24.61,2.8V156.7ZM848.16,287.11l3.67-1.51V221.69a146.29,146.29,0,0,0-24-2.16q-21.82,0-21.81,36.28,0,19.86,5.08,27.52T827.22,291A57,57,0,0,0,848.16,287.11Z"/><path class="cls-1" d="M896.05,309.56V201.61h23.32v13q18.33-11.88,36.7-15.33v23.53q-18.57,3.67-31.74,9.5l-4.75,1.94v75.35Z"/><path class="cls-1" d="M962.83,201.61h23.1l22.89,87.87h5.83l22.88-87.87h23.32l-41,154.38H996.72l13-46.43H991.11Z"/><path class="cls-2" d="M311,305.1a6,6,0,0,1-5.81,5.9H6A6.11,6.11,0,0,1,0,305.1V5.86A6.08,6.08,0,0,1,6,0H305.19A6,6,0,0,1,311,5.86Z"/><rect class="cls-1" x="75.2" y="36.04" width="51.87" height="54.13"/><rect class="cls-1" x="131.6" y="36.04" width="51.86" height="54.13"/><rect class="cls-3" x="187.97" y="94.68" width="51.86" height="54.13"/><polygon class="cls-3" points="187.97 36.04 187.97 90.18 239.83 90.18 187.97 36.04"/><polygon class="cls-3" points="187.97 207.44 239.83 207.44 187.97 153.32 187.97 207.44"/><rect class="cls-1" x="131.6" y="153.32" width="51.86" height="54.12"/><rect class="cls-3" x="187.97" y="211.96" width="51.86" height="54.13"/><rect class="cls-1" x="75.2" y="94.68" width="51.87" height="54.13"/><rect class="cls-1" x="75.2" y="153.32" width="51.87" height="54.12"/><rect class="cls-1" x="75.2" y="211.96" width="51.87" height="54.13"/></g></g></svg>