<?xml version="1.0" encoding="UTF-8" standalone="no"?>
<svg width="98px" height="26px" viewBox="0 0 98 26" version="1.1" xmlns="http://www.w3.org/2000/svg" xmlns:xlink="http://www.w3.org/1999/xlink">
    <!-- Generator: Sketch 40.1 (33804) - http://www.bohemiancoding.com/sketch -->
    <title>XMLID_12_</title>
    <desc>Created with Sketch.</desc>
    <defs></defs>
    <g id="Symbols" stroke="none" stroke-width="1" fill="none" fill-rule="evenodd">
        <g id="Logo---Dropbox" transform="translate(-38.000000, -5.000000)" fill="#0070E0">
            <g id="Layer_1">
                <g>
                    <g id="XMLID_12_" transform="translate(38.045570, 5.166667)">
                        <path d="M0.0495797468,1.24 L6.63043038,1.24 C12.2659949,1.24 15.8291949,4.87733333 15.8291949,10.5515389 C15.8291949,16.2257444 12.284243,19.8630778 6.63043038,19.8630778 L0.0495797468,19.8630778 L0.0495797468,1.24 L0.0495797468,1.24 L0.0495797468,1.24 Z M6.48496203,16.4622056 C10.0299139,16.4622056 11.9750582,14.1888722 11.9750582,10.5697944 C11.9750582,6.93246111 10.0299139,4.65912778 6.48496203,4.65912778 L3.9035443,4.65912778 L3.9035443,16.4622056 L6.48496203,16.4622056 L6.48496203,16.4622056 Z" id="XMLID_29_"></path>
                        <path d="M25.8095291,10.0241944 C25.3004759,9.71505556 24.6278785,9.56952778 23.918957,9.56952778 C22.6464101,9.56952778 21.6102278,10.2424 21.3375392,11.4791278 L21.3375392,19.8813333 L17.5925468,19.8813333 L17.5925468,6.31401111 L21.3556152,6.31401111 L21.3556152,7.64167222 C21.9373165,6.67774444 23.046319,6.00487222 24.3915139,6.00487222 C25.0277873,6.00487222 25.6094886,6.13214444 25.8095291,6.24133333 L25.8095291,10.0241944 L25.8095291,10.0241944 Z" id="XMLID_27_"></path>
                        <path d="M33.3175899,20.1904722 C29.3727291,20.1904722 26.663919,17.2806056 26.663919,13.1159278 C26.663919,8.93299444 29.372557,6.00487222 33.3175899,6.00487222 C37.2624506,6.00487222 39.9530127,8.91473889 39.9530127,13.1159278 C39.9530127,17.2806056 37.2624506,20.1904722 33.3175899,20.1904722 L33.3175899,20.1904722 Z M33.3175899,9.20579444 C31.4270177,9.20579444 30.4089114,10.8425944 30.4089114,13.1159278 C30.4089114,15.3529222 31.4450937,17.0078056 33.3175899,17.0078056 C35.1900861,17.0078056 36.2262684,15.3710056 36.2262684,13.1159278 C36.2262684,10.8425944 35.1900861,9.20579444 33.3175899,9.20579444 L33.3175899,9.20579444 Z" id="XMLID_24_"></path>
                        <path d="M45.3341367,24.9009222 L41.5710684,24.9009222 L41.5710684,6.31401111 L45.3341367,6.31401111 L45.3341367,7.44155 C45.9340861,6.71408333 47.279281,6.02295556 48.7336203,6.02295556 C52.678481,6.02295556 54.914562,9.29655556 54.914562,13.1340111 C54.914562,16.9532111 52.678481,20.2085556 48.7336203,20.2085556 C47.279281,20.2085556 45.9340861,19.5174278 45.3341367,18.7899611 L45.3341367,24.9009222 L45.3341367,24.9009222 L45.3341367,24.9009222 Z M45.3341367,15.3346667 C45.7886177,16.2803389 46.7884759,16.9168722 47.8792304,16.9168722 C49.9152709,16.9168722 51.1332456,15.2800722 51.1332456,13.1159278 C51.1332456,10.9335278 49.9152709,9.29672778 47.8792304,9.29672778 C46.7521519,9.29672778 45.7886177,9.9696 45.3341367,10.8789333 L45.3341367,15.3346667 L45.3341367,15.3346667 Z" id="XMLID_21_"></path>
                        <path d="M60.3320101,19.8813333 L56.5326177,19.8813333 L56.5326177,0.1488 L60.3320101,0.1488 L60.3320101,7.44172222 C60.9319595,6.71425556 62.2771544,6.02312778 63.7314937,6.02312778 C67.6763544,6.02312778 69.8941873,9.24213333 69.8941873,13.1341833 C69.8941873,17.0260611 67.6763544,20.2087278 63.7314937,20.2087278 C62.2771544,20.2087278 60.9319595,19.5176 60.3320101,18.7901333 L60.3320101,19.8813333 L60.3320101,19.8813333 Z M60.3320101,15.3346667 C60.7501671,16.2803389 61.7500253,16.9168722 62.8771038,16.9168722 C64.9131443,16.9168722 66.131119,15.2800722 66.131119,13.1159278 C66.131119,10.9335278 64.9131443,9.29672778 62.8771038,9.29672778 C61.7863494,9.29672778 60.7501671,9.9696 60.3320101,10.8789333 L60.3320101,15.3346667 L60.3320101,15.3346667 Z" id="XMLID_18_"></path>
                        <path d="M77.8930532,20.2268111 C73.9481924,20.2268111 71.2393823,17.3169444 71.2393823,13.1522667 C71.2393823,8.96933333 73.9480203,6.04121111 77.8930532,6.04121111 C81.8379139,6.04121111 84.5284759,8.95107778 84.5284759,13.1522667 C84.5284759,17.3169444 81.819838,20.2268111 77.8930532,20.2268111 L77.8930532,20.2268111 Z M77.8930532,9.24213333 C76.002481,9.24213333 74.9843747,10.8789333 74.9843747,13.1522667 C74.9843747,15.3892611 76.020557,17.0441444 77.8930532,17.0441444 C79.7655494,17.0441444 80.8017316,15.4073444 80.8017316,13.1522667 C80.8017316,10.8789333 79.7655494,9.24213333 77.8930532,9.24213333 L77.8930532,9.24213333 Z" id="XMLID_15_"></path>
                        <polygon id="XMLID_13_" points="92.9818228 12.8794667 97.9265418 19.8995889 93.7635646 19.8995889 90.8548861 15.6439778 87.9098835 19.8995889 83.9650228 19.8995889 88.8551696 12.9704 84.2557873 6.33226667 88.4187646 6.33226667 91.0365063 10.1878056 93.6907443 6.33226667 97.6356051 6.33226667"></polygon>
                    </g>
                </g>
            </g>
        </g>
    </g>
</svg>