<?xml version="1.0" standalone="no"?>
<!DOCTYPE svg PUBLIC "-//W3C//DTD SVG 20010904//EN"
 "http://www.w3.org/TR/2001/REC-SVG-20010904/DTD/svg10.dtd">
<svg version="1.0" xmlns="http://www.w3.org/2000/svg"
 width="800.000000pt" height="800.000000pt" viewBox="0 0 800.000000 800.000000"
 preserveAspectRatio="xMidYMid meet">
<metadata>
Created by potrace 1.11, written by Peter Selinger 2001-2013
</metadata>
<g transform="translate(0.000000,800.000000) scale(0.100000,-0.100000)"
fill="#000000" stroke="none">
<path d="M82 7980 c-33 -15 -47 -29 -62 -62 -19 -42 -20 -101 -20 -3918 0
-3817 1 -3876 20 -3918 15 -33 29 -47 62 -62 42 -19 101 -20 3918 -20 3817 0
3876 1 3918 20 33 15 47 29 62 62 19 42 20 101 20 3918 0 3817 -1 3876 -20
3918 -15 33 -29 47 -62 62 -42 19 -101 20 -3918 20 -3817 0 -3876 -1 -3918
-20z m3098 -1675 l0 -705 -675 0 -675 0 0 705 0 705 675 0 675 0 0 -705z
m1460 0 l0 -705 -675 0 -675 0 0 698 c0 384 3 702 7 705 3 4 307 7 675 7 l668
0 0 -705z m691 98 c310 -324 610 -636 668 -695 l105 -108 -672 0 -672 0 0 695
c0 382 2 695 4 695 3 0 258 -264 567 -587z m-2153 -1625 l-3 -703 -670 0 -670
0 -3 703 -2 702 675 0 675 0 -2 -702z m2922 2 l0 -700 -670 0 -670 0 0 700 0
700 670 0 670 0 0 -700z m-2920 -1525 l0 -705 -675 0 -675 0 0 705 0 705 675
0 675 0 0 -705z m1460 0 l0 -705 -675 0 -675 0 0 705 0 705 675 0 675 0 0
-705z m800 -10 c321 -335 599 -627 619 -647 l35 -38 -667 0 -667 0 0 697 0
698 49 -50 c26 -28 311 -324 631 -660z m-2260 -1510 l0 -705 -675 0 -675 0 0
705 0 705 675 0 675 0 0 -705z m2920 0 l0 -695 -670 0 -670 0 0 695 0 695 670
0 670 0 0 -695z"/>
</g>
</svg>
