<?xml version="1.0" standalone="no"?>
<!DOCTYPE svg PUBLIC "-//W3C//DTD SVG 1.1//EN" "http://www.w3.org/Graphics/SVG/1.1/DTD/svg11.dtd" >
<svg xmlns="http://www.w3.org/2000/svg">
<metadata>Generated by IcoMoon</metadata>
<defs>
<font id="icomoon" horiz-adv-x="1024">
<font-face units-per-em="1024" ascent="849.92" descent="-174.08" />
<missing-glyph horiz-adv-x="1024" />
<glyph unicode="&#x20;" horiz-adv-x="512" d="" />
<glyph unicode="&#xe900;" glyph-name="add-node" d="M102.4 742.4h819.2c56.554 0 102.4-45.846 102.4-102.4v-512c0-56.554-45.846-102.4-102.4-102.4h-819.2c-56.554 0-102.4 45.846-102.4 102.4v512c0 56.554 45.846 102.4 102.4 102.4zM563.2 435.2v102.4c0 28.277-22.923 51.2-51.2 51.2s-51.2-22.923-51.2-51.2v-102.4h-102.4c-28.277 0-51.2-22.923-51.2-51.2s22.923-51.2 51.2-51.2h102.4v-102.4c0-28.277 22.923-51.2 51.2-51.2s51.2 22.923 51.2 51.2v102.4h102.4c28.277 0 51.2 22.923 51.2 51.2s-22.923 51.2-51.2 51.2h-102.4z" />
<glyph unicode="&#xe901;" glyph-name="cross" d="M743.913 70.248c-25.289-25.397-66.268-25.397-91.503 0l-142.943 164.078-142.943-164.024c-25.289-25.397-66.268-25.397-91.503 0-25.289 25.397-25.289 66.552 0 91.895l148.713 170.576-148.767 170.685c-25.289 25.397-25.289 66.498 0 91.895s66.214 25.397 91.503 0l142.997-164.132 142.943 164.132c25.289 25.397 66.214 25.397 91.503 0s25.289-66.552 0-91.895l-148.713-170.685 148.713-170.576c25.289-25.397 25.289-66.552 0-91.949z" />
<glyph unicode="&#xe902;" glyph-name="arrow-left" d="M769.707 409.592h-375.45l113.486 117.399c19.352 20.019 19.352 52.376 0 72.395s-50.631 20.019-69.982 0l-232.961-240.992 232.961-240.992c9.651-9.984 22.321-15.001 34.991-15.001s25.34 5.017 34.991 15.001c19.352 20.019 19.352 52.376 0 72.395l-113.486 117.399h375.45c27.32 0 49.493 22.937 49.493 51.199s-22.173 51.199-49.493 51.199z" />
<glyph unicode="&#xe903;" glyph-name="calendar" d="M36.571 665.851v-717.303c0-56.446 45.733-102.149 102.149-102.149h717.303c56.446 0 102.149 45.733 102.149 102.149v717.303c0 56.446-45.733 102.149-102.149 102.149h-717.303c-56.446 0-102.149-45.733-102.149-102.149zM138.971 563.2h716.8v-614.4h-716.8v614.4zM241.371 870.4h102.4v-102.4h-102.4v102.4zM650.971 870.4h102.4v-102.4h-102.4v102.4zM241.371 409.6h102.4v-102.4h-102.4v102.4zM241.371 204.8h102.4v-102.4h-102.4v102.4zM446.171 409.6h102.4v-102.4h-102.4v102.4zM446.171 204.8h102.4v-102.4h-102.4v102.4zM650.971 409.6h102.4v-102.4h-102.4v102.4zM650.971 204.8h102.4v-102.4h-102.4v102.4z" />
<glyph unicode="&#xe904;" glyph-name="cancel" d="M512 793.6c-239.959 0-435.2-195.241-435.2-435.2s195.241-435.2 435.2-435.2c239.959 0 435.2 195.241 435.2 435.2s-195.241 435.2-435.2 435.2zM240 347.401c0 43.43 11.692 83.73 30.486 119.799l350.314-350.314c-36.070-18.793-76.37-30.486-119.799-30.486-143.915 0-261.001 117.086-261.001 261.001zM753.514 249.6l-350.314 350.314c36.070 18.793 76.37 30.486 119.799 30.486 143.915 0 261.001-117.086 261.001-261.001 0-43.43-11.692-83.73-30.486-119.799z" />
<glyph unicode="&#xe905;" glyph-name="arrow-right" d="M516.256 599.386c-19.352-20.019-19.352-52.376 0-72.395l113.486-117.399h-375.45c-27.32 0-49.493-22.937-49.493-51.199s22.173-51.199 49.493-51.199h375.45l-113.486-117.399c-19.352-20.019-19.352-52.376 0-72.395 9.651-9.984 22.321-15.001 34.991-15.001s25.34 5.017 34.991 15.001l232.961 240.992-232.961 240.992c-19.352 20.019-50.631 20.019-69.982 0z" />
<glyph unicode="&#xe906;" glyph-name="caret-down" d="M221.588 544.781c23.094 23.624 55.245 25.477 83.477 0l206.997-198.47 206.997 198.47c28.232 25.477 60.436 23.624 83.371 0 23.094-23.571 21.611-63.402 0-85.543-21.505-22.14-248.683-238.46-248.683-238.46-11.494-11.812-26.59-17.744-41.686-17.744s-30.192 5.932-41.791 17.744c0 0-227.072 216.32-248.683 238.46-21.664 22.14-23.094 61.972 0 85.543z" />
<glyph unicode="&#xe907;" glyph-name="caret-left" d="M698.471 648.812c23.508-23.094 25.352-55.245 0-83.477l-197.496-206.997 197.496-206.997c25.352-28.232 23.508-60.436 0-83.371-23.455-23.094-63.091-21.611-85.123 0-22.032 21.505-237.291 248.683-237.291 248.683-11.754 11.494-17.657 26.59-17.657 41.686s5.903 30.192 17.657 41.791c0 0 215.259 227.072 237.291 248.683 22.032 21.664 61.668 23.094 85.123 0z" />
<glyph unicode="&#xe908;" glyph-name="caret-right" d="M376.729 648.812c-23.508-23.094-25.352-55.245 0-83.477l197.496-206.997-197.496-206.997c-25.352-28.232-23.508-60.436 0-83.371 23.455-23.094 63.091-21.611 85.123 0 22.032 21.505 237.291 248.683 237.291 248.683 11.754 11.494 17.657 26.59 17.657 41.686s-5.903 30.192-17.657 41.791c0 0-215.259 227.072-237.291 248.683-22.032 21.664-61.668 23.094-85.123 0z" />
<glyph unicode="&#xe909;" glyph-name="caret-up" d="M221.588 221.453c23.094-23.624 55.245-25.477 83.477 0l206.997 198.47 206.997-198.47c28.232-25.477 60.436-23.624 83.371 0 23.094 23.571 21.611 63.402 0 85.543-21.505 22.14-248.683 238.46-248.683 238.46-11.494 11.812-26.59 17.744-41.686 17.744s-30.192-5.932-41.791-17.744c0 0-227.072-216.32-248.683-238.46-21.664-22.14-23.094-61.972 0-85.543z" />
<glyph unicode="&#xe90a;" glyph-name="close" d="M512 870.4c-282.816 0-512-229.248-512-512s229.184-512 512-512c282.816 0 512 229.248 512 512s-229.184 512-512 512zM749.248 211.648c25.024-25.024 25.024-65.472 0-90.496-12.48-12.48-28.864-18.752-45.248-18.752s-32.768 6.272-45.248 18.752l-146.752 146.752-146.752-146.752c-12.48-12.48-28.864-18.752-45.248-18.752s-32.768 6.272-45.248 18.752c-25.024 25.024-25.024 65.472 0 90.496l146.752 146.752-146.752 146.752c-25.024 25.024-25.024 65.472 0 90.496s65.472 25.024 90.496 0l146.752-146.752 146.752 146.752c25.024 25.024 65.472 25.024 90.496 0s25.024-65.472 0-90.496l-146.752-146.752 146.752-146.752z" />
<glyph unicode="&#xe90b;" glyph-name="cloud" d="M632.85 771.211l-46.878-140.633-46.878 140.633c-8.626 25.923 5.344 53.863 31.221 62.488 25.923 8.672 53.909-5.344 62.535-31.221 3.516-10.594 3.281-21.47 0-31.267zM884.302 628.234l-132.617-66.332 66.332 132.617c12.235 24.423 41.909 34.268 66.285 22.126 24.423-12.235 34.268-41.909 22.126-66.332-5.016-9.938-12.845-17.439-22.126-22.079zM960.994 349.311l-140.633 46.878 140.633 46.878c25.923 8.672 53.863-5.344 62.535-31.267 8.626-25.877-5.391-53.816-31.314-62.488-10.548-3.516-21.423-3.235-31.221 0zM353.927 694.519l66.332-132.617-132.617 66.332c-24.423 12.235-34.315 41.909-22.126 66.285 12.235 24.423 41.956 34.268 66.285 22.126 9.985-5.016 17.485-12.845 22.126-22.126zM786.422 333.279c6.516 19.876 10.501 40.831 10.501 62.91 0 116.304-94.646 210.95-210.95 210.95-62.816 0-118.929-27.845-157.369-71.629l-6.704 1.313c-83.255 0-157.931-36.565-209.497-94.271-11.251 3.75-22.126 4.031-32.674 0.516-25.923-8.672-39.94-36.612-31.314-62.488 2.672-7.829 7.407-14.016 12.985-19.267-13.266-32.674-20.767-68.348-20.767-105.756l0.094-5.907c-80.864-20.861-140.727-94.365-140.727-181.605 0-103.412 84.146-187.511 187.511-187.511h515.656c129.242 0 234.389 105.147 234.389 234.389 0 99.803-63.004 184.652-151.134 218.357zM585.972 513.383c64.644 0 117.194-52.55 117.194-117.194 0-17.157-4.5-33.096-11.157-47.768-16.595-0.984-33.752-3.469-52.409-8.813-24.423 63.426-75.192 113.21-139.086 136.18 21.376 22.97 51.659 37.596 85.458 37.596zM703.167-25.711h-515.656c-51.753 0-93.756 42.049-93.756 93.756s42.002 93.756 89.443 94.037l66.66-0.75-11.626 56.347c-2.578 12.329-3.844 25.126-3.844 37.877 0 103.412 84.146 187.511 187.511 187.511l3.235 0.656c89.255-2.578 163.838-65.91 180.339-153.29l1.781-8.719c5.766-20.439 24.236-33.096 44.346-33.377l13.548 1.078c14.626 4.219 26.673 6.141 38.018 6.141 77.536 0 140.633-63.097 140.633-140.633s-63.097-140.633-140.633-140.633z" />
<glyph unicode="&#xe90c;" glyph-name="code" d="M292.922 141.097c-12.077 0-24.257 4.247-33.98 12.896l-258.943 230.183 273.323 242.976c21.084 18.679 53.426 16.888 72.207-4.247s16.888-53.477-4.247-72.258l-187.247-166.47 172.867-153.626c21.135-18.781 23.028-51.123 4.247-72.258-10.081-11.412-24.154-17.195-38.227-17.195zM750.677 141.2l273.323 242.976-258.943 230.183c-21.135 18.781-53.477 16.888-72.207-4.247-18.781-21.135-16.888-53.477 4.247-72.258l172.867-153.677-187.247-166.419c-21.135-18.781-23.028-51.123-4.247-72.258 10.081-11.412 24.154-17.195 38.227-17.195 12.077 0 24.257 4.247 33.98 12.896zM511.284 68.685l102.349 614.093c4.657 27.89-14.175 54.245-42.065 58.902-27.992 4.708-54.296-14.175-58.851-42.065l-102.349-614.093c-4.657-27.89 14.175-54.245 42.065-58.902 2.866-0.461 5.629-0.665 8.444-0.665 24.564 0 46.262 17.758 50.407 42.731z" />
<glyph unicode="&#xe90d;" glyph-name="color-correct" d="M849.522 720.727c-37.841 33.049-80.509 59.51-128.004 79.487s-97.703 31.992-150.695 36.115v-164.119c30.266-3.453 59.193-10.993 86.71-22.726s52.639-26.848 75.365-45.416l116.624 116.659zM857.802 383.187h166.198c-4.122 52.992-16.348 103.235-36.643 150.695s-46.614 90.48-78.959 129.026l-116.659-117.681c17.899-22.726 32.521-47.812 43.866-75.365s18.744-56.409 22.197-86.675zM789.66 139.58l118.703-118.703c32.345 38.546 58.664 81.531 78.959 129.026s32.521 97.703 36.643 150.695h-167.22c-3.453-30.266-10.993-59.017-22.726-86.182s-26.461-52.146-44.359-74.837zM570.823 15.698v-169.298c52.992 4.827 103.235 17.194 150.695 37.172s90.163 46.121 128.004 78.466l-118.703 119.724c-22.726-17.899-47.671-32.521-74.837-43.866s-55.564-18.744-85.16-22.197zM208.514-37.963c38.546-32.345 81.39-58.488 128.498-78.466s97.21-32.345 150.202-37.172v169.298c-29.596 3.453-57.995 10.852-85.16 22.197s-52.111 25.967-74.837 43.866l-118.703-119.724zM201.291 300.599h-167.22c4.122-52.992 16.348-103.235 36.643-150.695s46.614-90.48 78.959-129.026l118.703 118.703c-17.899 22.726-32.697 47.671-44.395 74.837s-19.238 55.916-22.691 86.182zM188.888 560.73l290.045-289.023 161.018-83.61 42.316 42.316-82.588 162.075-290.009 290.045-120.781-121.803zM68.142 621.614c-8.28-8.245-12.402-18.216-12.402-29.913s4.122-22.021 12.402-30.971c8.245-8.245 18.251-12.402 29.949-12.402s21.669 4.122 29.949 12.402l181.665 181.665c8.209 8.28 12.367 18.427 12.367 30.442s-4.122 22.197-12.402 30.442c-8.28 8.245-18.251 12.402-29.949 12.402s-22.021-4.122-30.935-12.367l-29.949-30.971-73.286 73.286c-16.525 16.525-36.467 24.769-59.862 24.769s-43.69-8.245-60.919-24.769c-16.525-16.525-24.769-36.643-24.769-60.391s8.245-43.866 24.769-60.391l73.286-73.286-29.913-29.949z" />
<glyph unicode="&#xe90e;" glyph-name="comment" d="M1024 806.4c0 35.2-28.8 64-64 64h-896c-35.2 0-64-28.8-64-64v-704c0-35.2 28.8-64 64-64h736l224-192v960zM768 294.4h-512v128h512v-128zM768 486.4h-512v128h512v-128z" />
<glyph unicode="&#xe90f;" glyph-name="compare" d="M501.060-134.325c-40.335 0-73.071 32.736-73.071 73.071v858.583c0 40.335 32.736 73.071 73.071 73.071s73.071-32.736 73.071-73.071v-858.583c0-40.372-32.736-73.071-73.071-73.071zM336.651 89.309h-106.574v557.458h106.574v109.606h-161.377c-30.288 0-54.803-24.515-54.803-54.803v-667.064c0-30.251 24.515-54.803 54.803-54.803h161.377v109.606zM826.847 756.373h-161.377v-109.606h106.574v-557.458h-106.574v-109.606h161.377c30.251 0 54.803 24.552 54.803 54.803v667.064c0 30.288-24.552 54.803-54.803 54.803z" />
<glyph unicode="&#xe910;" glyph-name="constant" d="M735.675 870.4l-43.681-190.459h-214.942l41.937 190.459h-204.451l-41.937-190.459h-141.546l-43.681-190.486h141.533l-50.67-228.894h-134.557l-43.681-188.728h136.287l-40.179-179.995h204.451l40.193 179.995h214.929l-40.179-179.995h204.438l40.206 179.995h138.045l43.681 188.728h-139.802l52.427 228.894h125.81l43.694 190.486h-127.567l43.694 190.459h-204.451zM433.359 489.455h216.686l-52.427-228.894h-214.929l50.67 228.894z" />
<glyph unicode="&#xe911;" glyph-name="check" d="M450.626 51.2c-17.046 0-33.19 8.167-43.535 22.248l-140.009 189.934c-18.221 24.662-13.48 59.784 10.58 78.492 24.099 18.788 58.307 13.84 76.529-10.863l92.124-124.879 231.623 381.879c15.948 26.231 49.648 34.277 75.275 17.903 25.588-16.334 33.464-50.933 17.477-77.245l-273.669-450.997c-9.483-15.731-25.901-25.547-43.887-26.392-0.862-0.080-1.646-0.080-2.508-0.080z" />
<glyph unicode="&#xe912;" glyph-name="crosshair" d="M511.474-153.6c-70.195 0-136.47 13.466-198.862 40.397s-116.798 63.626-163.22 110.047c-46.422 46.422-82.935 100.647-109.539 162.676s-39.852 128.159-39.852 198.354c0 70.885 13.284 137.342 39.889 199.37s63.081 116.254 109.539 162.676c46.458 46.422 100.828 83.116 163.22 110.047s128.631 40.433 198.826 40.433c70.195 0 136.47-13.466 198.862-40.397s116.798-63.444 163.22-109.539c46.422-46.095 82.935-100.32 109.539-162.676s39.889-129.030 39.889-199.915c0-70.195-13.284-136.289-39.889-198.318s-63.081-116.254-109.539-162.676c-46.458-46.422-100.828-83.116-163.22-110.047s-128.703-40.433-198.862-40.433zM575.281 737.487v-123.332c0-9.219-3.194-16.841-9.582-22.866s-13.829-9.038-22.322-9.038h-63.807c-9.219 0-16.841 3.194-22.866 9.582s-9.038 13.829-9.038 22.322v123.332c-39.707-7.078-77.273-19.854-112.697-38.292s-66.82-41.449-94.114-69.106c-27.294-27.657-50.342-59.016-69.143-94.114s-31.359-72.845-37.747-113.241h121.226c9.219 0 16.841-3.013 22.866-9.038s9.038-13.647 9.038-22.866v-62.755c0-9.219-3.194-16.841-9.582-22.866s-13.792-9.001-22.322-9.001h-122.279c6.388-40.397 18.946-78.144 37.747-113.241s41.812-66.457 69.106-94.114c27.294-27.657 58.472-50.668 93.569-69.106s72.845-31.178 113.241-38.292v121.226c0 9.219 3.194 16.841 9.582 22.866s13.829 9.038 22.322 9.038h63.807c9.219 0 16.841-3.194 22.866-9.582s9.038-13.829 9.038-22.322v-122.279c39.707 7.078 77.273 19.854 112.697 38.292s67.001 41.486 94.622 69.106c27.621 27.621 50.668 59.016 69.106 94.114s30.851 72.845 37.203 113.241h-120.174c-9.219 0-16.841 3.013-22.866 9.038s-9.038 13.647-9.038 22.866v62.755c0 9.219 3.194 16.841 9.582 22.866s13.829 9.038 22.322 9.038h121.226c-6.388 40.397-18.801 78.144-37.203 113.241s-41.486 66.457-69.106 94.114c-27.621 27.657-59.198 50.85-94.622 69.651s-72.99 31.686-112.661 38.763z" />
<glyph unicode="&#xe913;" glyph-name="database" d="M894.604 193.105c-49.047-79.302-205.673-137.367-391.331-137.367s-342.284 58.065-391.389 137.367c-10.356 16.873-15.884 7.855-15.884-0.407 0-8.378 0-116.48 0-116.48 0-112.873 182.342-229.818 407.273-229.818s407.273 116.945 407.273 229.76c0 0 0 108.102 0 116.48 0 8.32-5.585 17.338-15.942 0.465zM895.244 490.764c-48.291-70.109-205.498-121.6-391.971-121.6s-343.738 51.491-392.029 121.6c-9.949 14.429-15.244 6.575-15.244 0.116 0-6.575 0-137.135 0-137.135 0-102.516 182.342-185.542 407.273-185.542s407.273 83.084 407.273 185.542c0 0 0 130.56 0 137.135 0 6.458-5.353 14.313-15.302-0.116zM503.273 870.4c-224.931 0-407.273-68.655-407.273-153.193v-73.309c0-89.658 182.342-162.385 407.273-162.385s407.273 72.727 407.273 162.385v73.309c0 84.538-182.342 153.193-407.273 153.193z" />
<glyph unicode="&#xe914;" glyph-name="download" d="M582.4 101.818l-52.945-52.945v268.8c0 24.396-16.291 40.727-40.727 40.727-24.396 0-40.727-16.332-40.727-40.727v-268.8l-52.945 52.945c-16.291 16.209-40.727 16.209-57.018 0-16.25-16.291-16.25-40.727 0-57.018l117.58-117.58c7.005-10.263 18.246-16.82 33.111-16.82s26.188 6.557 33.193 16.861l117.498 117.539c16.291 16.291 16.291 40.727 0 57.018-16.291 16.209-40.727 16.209-57.018 0zM977.455 399.127c0-134.4-109.964-244.364-244.364-244.364h-81.455c-24.396 0-40.727 16.291-40.727 40.727 0 24.396 16.332 40.727 40.727 40.727h81.455c89.6 0 162.909 73.309 162.909 162.909s-73.309 162.909-162.909 162.909c-12.218 0-28.509 0-40.727-4.073-20.364-8.145-44.759 4.073-52.945 24.436-24.436 85.487-101.818 142.545-191.418 142.545-114.036 0-203.636-89.6-203.636-203.636 0-24.436-16.291-40.727-40.727-40.727-69.236 0-122.182-52.945-122.182-122.182s52.945-122.182 122.182-122.182h122.182c24.436 0 40.727-16.332 40.727-40.727 0-24.436-16.291-40.727-40.727-40.727h-122.182c-114.036 0-203.636 89.6-203.636 203.636 0 100.922 70.336 182.417 165.516 199.889 17.879 140.957 136.192 248.111 282.484 248.111 109.801 0 209.297-66.1 257.967-165.149 9.041 1.222 18.124 2.24 27.124 2.24 134.4 0 244.364-109.964 244.364-244.364z" />
<glyph unicode="&#xe915;" glyph-name="dropbox" d="M208.013 471.359l303.987-187.686-210.475-175.372-301.525 196.287 208.013 166.77zM814.774 129.842v-66.495l-301.525-180.297v-0.625l-0.662 0.625-0.625-0.625v0.625l-300.9 180.334v66.495l90.461-59.070 210.475 174.784v1.213l0.625-0.625 0.662 0.625v-1.213l211.064-174.784 90.424 59.033zM301.525 833.829l210.475-175.372-303.987-187.061-208.013 166.145 301.525 196.287zM815.987 471.359l207.976-166.77-300.936-196.287-211.064 175.372 304.024 187.686zM723.064 833.829l300.936-196.287-207.976-166.182-304.024 187.061 211.064 175.408z" />
<glyph unicode="&#xe916;" glyph-name="duplicate" d="M307.2 563.2v204.5c0 56.72 45.929 102.7 102.7 102.7h511.4c56.72 0 102.7-45.929 102.7-102.7v-511.4c0-56.72-45.929-102.7-102.7-102.7h-204.5v306.9c0 56.771-45.98 102.7-102.7 102.7h-306.9v51.2h102.4v153.6h512v-512h-153.6v-102.4h-51.2v-204.5c0-56.72-45.929-102.7-102.7-102.7h-511.4c-56.72 0-102.7 45.929-102.7 102.7v511.4c0 56.72 45.929 102.7 102.7 102.7h204.5zM307.2 460.8h-204.8v-512h512v512h-307.2zM307.2 256v102.4h102.4v-102.4h102.4v-102.4h-102.4v-102.4h-102.4v102.4h-102.4v102.4h102.4z" />
<glyph unicode="&#xe917;" glyph-name="edit" d="M921.59 657.069l-110.932 110.932-473.552-473.595-25.642-136.532 136.532 25.6 473.595 473.595zM1011.232 627.203l-511.995-511.995c-4.309-4.267-12.8-8.533-21.333-12.8l-213.331-42.666h-8.576c-12.757 0-21.333 4.267-29.866 12.8s-12.8 25.6-12.8 38.4l42.666 213.331c0 8.533 4.267 17.066 12.8 21.333l511.995 511.995c17.109 17.066 42.666 17.066 59.775 0l170.665-170.665c17.024-17.066 17.024-42.666 0-59.733v0zM934.433 315.739v-307.197c4.224-89.599-68.309-162.132-157.865-162.132h-614.436c-89.556 0-162.132 72.533-162.132 162.132v614.394c0 89.599 72.575 162.132 162.132 162.132h307.197c25.6 0 42.666-17.066 42.666-42.666s-17.066-42.666-42.666-42.666h-307.197c-42.666 0-76.799-34.133-76.799-76.799v-610.127c0-42.666 34.133-76.799 76.799-76.799h610.127c42.666 0 76.842 34.133 76.842 76.799v302.93c0 25.6 17.024 42.666 42.666 42.666 25.557 0 42.666-17.066 42.666-42.666v0z" />
<glyph unicode="&#xe918;" glyph-name="exchange" d="M1024 248.686v-109.714c0-4.952-1.809-9.238-5.429-12.857s-7.905-5.429-12.857-5.429h-786.286v-109.714c0-4.952-1.81-9.238-5.429-12.857s-7.905-5.429-12.857-5.429c-4.571 0-9.143 1.905-13.714 5.714l-182.286 182.857c-3.429 3.429-5.143 7.619-5.143 12.571 0 5.333 1.714 9.714 5.143 13.143l182.857 182.857c3.429 3.429 7.81 5.143 13.143 5.143 4.952 0 9.238-1.809 12.857-5.429s5.429-7.905 5.429-12.857v-109.714h786.286c4.952 0 9.238-1.81 12.857-5.429s5.429-7.905 5.429-12.857zM1024 559.543c0-5.333-1.714-9.714-5.143-13.143l-182.857-182.857c-3.429-3.429-7.81-5.143-13.143-5.143-4.952 0-9.238 1.809-12.857 5.429s-5.429 7.905-5.429 12.857v109.714h-786.286c-4.952 0-9.238 1.809-12.857 5.429s-5.429 7.905-5.429 12.857v109.714c0 4.952 1.81 9.238 5.429 12.857s7.905 5.429 12.857 5.429h786.286v109.714c0 5.333 1.714 9.714 5.143 13.143s7.809 5.143 13.143 5.143c4.571 0 9.143-1.905 13.714-5.714l182.286-182.286c3.429-3.429 5.143-7.81 5.143-13.143z" />
<glyph unicode="&#xe919;" glyph-name="extent" d="M469.294 394.81l-125.435-125.435-35.433 35.433c-2.544 2.47-5.273 4.388-8.112 5.715-2.95 1.29-6.231 1.917-10.103 1.917-3.171 0-6.379-0.627-9.55-1.917-3.208-1.327-5.789-2.839-7.669-4.756-2.507-2.581-4.498-5.42-5.715-8.554-1.327-3.245-1.917-6.452-1.917-9.697v-142.654c0-3.798 0.442-7.153 1.401-10.066 0.959-2.802 2.692-5.568 5.273-8.075 2.581-2.544 5.236-4.535 8.148-5.789 2.876-1.217 6.231-1.917 10.029-1.917h142.728c3.835 0 7.19 0.701 10.103 1.917 2.839 1.254 5.494 3.245 8.112 5.789 2.47 1.917 4.388 4.388 5.715 7.595 1.327 3.245 1.88 6.379 1.88 9.55 0 3.871-0.59 7.153-1.88 10.103-1.327 2.839-3.245 5.531-5.715 8.112l-35.433 35.47 125.435 125.435-71.862 71.825zM834.207 312.44c-3.208 0-6.305-0.627-9.144-1.917-2.839-1.327-5.568-3.245-8.148-5.715l-36.392-35.433-124.477 125.435-71.825-71.825 125.509-124.513-36.465-36.392c-2.544-2.544-4.24-5.273-5.236-8.112-0.922-2.95-1.438-5.862-1.438-9.107 0-3.798 0.516-7.153 1.438-10.066 0.959-2.802 2.655-5.568 5.236-8.075 2.544-2.544 5.273-4.535 8.185-5.789 2.876-1.217 6.157-1.917 10.029-1.917h142.728c3.761 0 7.153 0.701 9.992 1.917 2.913 1.254 5.604 3.245 8.222 5.789 2.544 1.917 4.314 4.388 5.273 7.595 0.922 3.245 1.401 6.379 1.401 9.55l0.922 143.649c0 3.245-0.59 6.231-1.917 9.070-1.217 2.95-3.134 5.641-5.678 8.222-2.581 2.47-5.309 4.388-8.222 5.715-2.839 1.29-6.268 1.917-9.992 1.917zM655.050 446.54l125.435 124.55 35.47-35.433c2.544-2.655 5.383-4.535 8.628-5.789 3.134-1.254 6.379-1.88 9.586-1.88 3.761 0 7.153 0.664 9.992 1.88 2.913 1.254 5.604 3.134 8.222 5.789 2.544 2.47 4.314 5.199 5.273 8.038 0.922 2.95 1.401 6.305 1.401 10.103l0.922 142.654c0 3.245-0.59 6.452-1.917 9.586-1.217 3.208-3.134 6.084-5.678 8.628-2.581 1.917-5.309 3.54-8.222 4.756-2.802 1.254-6.231 1.917-9.992 1.917h-142.728c-3.134 0-6.379-0.442-9.586-1.475-3.245-0.885-6.084-2.618-8.628-5.199-1.917-2.544-3.54-5.273-4.793-8.112-1.217-2.95-1.88-6.231-1.88-10.103 0-3.208 0.664-6.342 1.88-9.513 1.254-3.208 2.876-5.789 4.793-7.669l36.465-36.392-125.509-124.477 70.866-71.862zM290.175 528.91c3.208 0 6.342 0.442 9.586 1.475 3.208 0.885 6.084 2.618 8.628 5.273l35.433 35.433 125.435-125.509 70.866 71.825-124.477 125.435 35.433 35.433c2.47 2.544 4.388 5.273 5.715 8.112 1.327 2.876 1.88 6.231 1.88 10.029 0 3.245-0.59 6.452-1.88 9.586-1.327 3.208-3.245 6.084-5.715 8.628-2.618 1.917-5.273 3.54-8.112 4.756-2.95 1.254-5.936 1.917-9.181 1.917h-143.613c-3.171 0-6.379-0.442-9.55-1.475-3.208-0.811-5.789-2.581-7.669-5.125-2.507-2.581-4.461-5.273-5.715-8.148-1.327-2.913-1.917-6.231-1.917-10.103v-142.654c0-3.835 0.442-7.19 1.401-10.103 0.959-2.839 2.692-5.568 5.273-8.038 2.581-2.655 5.236-4.388 8.148-5.273 2.839-1.032 6.194-1.475 10.029-1.475zM912.705 44.241h-718.247c-2.581 0-4.83 0.996-6.747 2.913s-2.876 4.166-2.876 6.747v718.284c0 2.507 0.959 4.756 2.876 6.6 1.88 1.954 4.166 2.913 6.747 2.913h718.247c2.507 0 4.793-0.959 6.747-2.913 1.844-1.844 2.802-4.093 2.802-6.6v-718.247c0-2.544-0.959-4.83-2.802-6.747-1.954-1.917-4.24-2.95-6.747-2.95zM970.113 836.267h-831.257c-2.581 0-4.756-0.959-6.674-2.876-1.88-1.88-2.913-4.093-2.913-6.637v-389.8h-129.27v-491.269c0-2.618 0-5.752 0-9.513 0-3.871 0-7.079 0-9.697v-27.727c0-2.581 0-5.309 0-8.148 0-2.876 0-4.978 0-6.305v-3.761h589.014v104.345h381.099c2.544 0 4.756 0.959 6.747 2.95 1.917 1.917 2.839 4.093 2.839 6.674v832.252c0 2.544-0.922 4.756-2.839 6.674-1.991 1.88-4.166 2.839-6.747 2.839z" />
<glyph unicode="&#xe91a;" glyph-name="eye" d="M950.857 358.4c-57.905 89.905-130.476 157.143-217.714 201.714 23.238-39.619 34.857-82.476 34.857-128.572 0-70.476-25.048-130.762-75.143-180.857s-110.381-75.143-180.857-75.143c-70.476 0-130.762 25.048-180.857 75.143s-75.143 110.381-75.143 180.857c0 46.095 11.619 88.952 34.857 128.572-87.238-44.572-159.81-111.81-217.714-201.714 50.667-78.095 114.19-140.286 190.571-186.571s159.143-69.429 248.286-69.429c89.143 0 171.905 23.143 248.286 69.429s139.905 108.476 190.571 186.571zM539.429 577.829c0 7.619-2.666 14.095-8 19.428s-11.81 8-19.429 8c-47.619 0-88.476-17.048-122.571-51.143s-51.143-74.952-51.143-122.571c0-7.619 2.667-14.095 8-19.428s11.809-8 19.429-8c7.619 0 14.095 2.667 19.428 8s8 11.809 8 19.428c0 32.762 11.619 60.762 34.857 84s51.238 34.857 84 34.857c7.619 0 14.095 2.666 19.429 8s8 11.809 8 19.429zM1024 358.4c0-12.952-3.81-26.095-11.429-39.429-53.333-87.619-125.048-157.809-215.143-210.571s-185.238-79.143-285.428-79.143c-100.191 0-195.333 26.476-285.429 79.429s-161.81 123.048-215.143 210.286c-7.619 13.333-11.429 26.476-11.429 39.429s3.81 26.095 11.429 39.429c53.333 87.238 125.048 157.334 215.143 210.286s185.238 79.428 285.429 79.428c100.191 0 195.333-26.476 285.428-79.428s161.81-123.048 215.143-210.286c7.619-13.333 11.429-26.476 11.429-39.429z" />
<glyph unicode="&#xe91b;" glyph-name="eye-off" d="M317.143 162.4l44.571 80.571c-33.143 24-59.048 54.286-77.714 90.857s-28 75.238-28 116c0 46.095 11.619 88.952 34.857 128.571-87.238-44.572-159.81-111.81-217.714-201.714 63.619-98.286 144.952-169.714 244-214.286zM539.429 596.114c0 7.619-2.666 14.095-8 19.429s-11.81 8-19.429 8c-47.619 0-88.476-17.048-122.571-51.143s-51.143-74.952-51.143-122.571c0-7.619 2.667-14.095 8-19.429s11.809-8 19.429-8c7.619 0 14.095 2.666 19.428 8s8 11.809 8 19.429c0 32.762 11.619 60.762 34.857 84s51.238 34.857 84 34.857c7.619 0 14.095 2.666 19.429 8s8 11.809 8 19.428zM746.857 705.257c0-2.667-0.19-4.381-0.571-5.143-40-71.619-100-179.429-180-323.429s-140.19-252-180.571-324l-28-50.857c-3.81-6.095-9.143-9.143-16-9.143-4.571 0-30.095 13.333-76.571 40-6.095 3.81-9.143 9.143-9.143 16 0 4.571 8.381 21.143 25.143 49.714-54.476 24.762-104.667 57.714-150.571 98.857s-85.619 87.809-119.143 140c-7.619 11.809-11.429 24.952-11.429 39.428s3.81 27.619 11.429 39.428c58.286 89.524 130.667 160.19 217.143 212s180.952 77.714 283.429 77.714c33.905 0 68.191-3.238 102.857-9.714l30.857 55.428c3.81 6.095 9.143 9.143 16 9.143 1.905 0 5.333-1.143 10.286-3.429s10.857-5.238 17.714-8.857c6.857-3.619 13.143-7.143 18.857-10.571s11.714-6.953 18-10.571c6.286-3.619 10-5.809 11.143-6.572 6.096-3.809 9.143-8.952 9.143-15.428zM768 449.829c0-52.952-15.048-101.238-45.143-144.857s-69.905-74.952-119.428-94l160 286.857c3.048-17.143 4.571-33.143 4.571-48zM1024 376.686c0-13.333-3.81-26.476-11.429-39.428-14.857-24.381-35.619-52-62.286-82.857-57.143-65.524-123.333-116.381-198.571-152.571s-155.143-54.286-239.714-54.286l42.286 75.429c80.762 6.857 155.524 32.952 224.286 78.286s126.191 103.81 172.286 175.429c-43.809 68.191-97.524 124.19-161.143 168l36 64c36.191-24.381 70.952-53.524 104.286-87.429s60.857-68.952 82.572-105.143c7.619-12.952 11.429-26.095 11.429-39.428z" />
<glyph unicode="&#xe91c;" glyph-name="eyedropper" d="M970.286 816.686c35.81-35.81 53.714-78.952 53.714-129.428s-17.905-93.428-53.714-128.857l-128.571-127.428 59.428-59.428c3.81-3.81 5.714-8.19 5.714-13.143s-1.905-9.333-5.714-13.143l-120-120c-3.81-3.81-8.19-5.714-13.143-5.714s-9.333 1.905-13.143 5.714l-60 60-344.572-344.572c-14.095-14.095-31.238-21.143-51.429-21.143h-116l-146.285-73.143-36.571 36.571 73.143 146.285v116c0 20.19 7.048 37.333 21.143 51.429l344.572 344.572-60 60c-3.81 3.81-5.714 8.19-5.714 13.143s1.905 9.333 5.714 13.143l120 120c3.81 3.81 8.19 5.714 13.143 5.714s9.333-1.905 13.143-5.714l59.428-59.428 127.428 128.571c35.429 35.81 78.381 53.714 128.857 53.714s93.619-17.905 129.428-53.714v0zM292.573 29.258l329.143 329.143-109.714 109.714-329.143-329.143v-109.714h109.714z" />
<glyph unicode="&#xe91d;" glyph-name="filter" d="M1012.002 842.289c8.169-19.702 4.805-36.52-10.091-50.455l-355.348-355.349v-534.825c0-20.182-9.371-34.358-28.111-42.527-6.246-2.403-12.253-3.604-18.019-3.604-12.974 0-23.786 4.565-32.436 13.695l-184.522 184.522c-9.13 9.13-13.695 19.942-13.695 32.435v350.303l-355.349 355.349c-14.896 13.935-18.26 30.754-10.091 50.455 8.169 18.741 22.344 28.111 42.527 28.111h922.609c20.182 0 34.358-9.37 42.526-28.111z" />
<glyph unicode="&#xe91e;" glyph-name="function" horiz-adv-x="956" d="M0.654 587.304c0-1.306 0.163-2.449 0.49-3.428s0.816-2.122 1.469-3.428c0 0 0-0.163 0-0.49s0.327-0.49 0.98-0.49c0 0 0-0.163 0-0.49s0-0.49 0-0.49c0.653-0.653 1.143-1.143 1.469-1.469s0.816-0.816 1.469-1.469c0.653-0.653 1.306-1.143 1.959-1.469s1.306-0.816 1.959-1.469c0 0 0 0 0 0 1.306-0.653 24.816-12.734 70.529-36.244s95.835-49.305 150.364-77.386c54.529-28.081 104.651-53.876 150.364-77.386s69.223-35.591 70.529-36.244c0-0.653 0.163-0.98 0.49-0.98s0.816 0 1.469 0c0.653 0 1.469-0.163 2.449-0.49s2.122-0.49 3.428-0.49c0 0 0.163 0 0.49 0s0.49 0 0.49 0c1.306 0 2.449 0 3.428 0s2.122 0.327 3.428 0.98c0 0 0.163 0 0.49 0s0.49 0 0.49 0c0.653 0 1.306 0.163 1.959 0.49s1.306 0.816 1.959 1.469l422.196 257.627c0 0.653 0.163 0.98 0.49 0.98s0.816 0.327 1.469 0.98c0 0 0.326 0.327 0.98 0.98s1.306 0.98 1.959 0.98c0.653 0.653 1.143 1.306 1.469 1.959s0.49 1.306 0.49 1.959c0.653 0 0.98 0.163 0.98 0.49s0.327 0.816 0.98 1.469c0 0 0 0.163 0 0.49s0 0.49 0 0.49c0 1.306 0.163 2.286 0.49 2.939s0.49 1.306 0.49 1.959c0 0.653 0.163 1.306 0.49 1.959s0.163 1.306-0.49 1.959c0 0.653 0 1.306 0 1.959s0 1.306 0 1.959c0 0.653-0.163 1.306-0.49 1.959s-0.816 1.306-1.469 1.959c0 0 0 0.163 0 0.49s0 0.816 0 1.469c0 0-0.163 0.163-0.49 0.49s-0.49 0.49-0.49 0.49c-0.653 0.653-1.306 1.306-1.959 1.959s-0.98 0.98-0.98 0.98c-0.653 0.653-1.306 1.143-1.959 1.469s-1.306 0.816-1.959 1.469c0 0-0.163 0.163-0.49 0.49s-0.49 0.49-0.49 0.49l-439.827 227.26c-0.653 0-1.143 0-1.469 0s-0.816 0-1.469 0c-0.653 0.653-1.306 0.98-1.959 0.98s-1.306 0-1.959 0c-0.653 0.653-1.306 0.98-1.959 0.98s-1.306 0-1.959 0c-0.653 0-1.306 0-1.959 0s-0.98 0-0.98 0c-1.306-0.653-2.286-1.143-2.939-1.469s-1.633-0.49-2.939-0.49c0 0-0.163-0.163-0.49-0.49s-0.49-0.49-0.49-0.49c-1.306-0.653-23.183-13.877-65.631-39.672s-89.141-54.366-140.078-85.712c-50.938-31.346-98.447-60.57-142.527-87.671s-69.060-42.285-74.937-45.55c-1.306-0.653-2.775-1.633-4.408-2.939s-2.775-2.939-3.428-4.898c-1.306-1.959-2.122-4.082-2.449-6.367s-0.163-4.735 0.49-7.347c0 0 0 0 0 0l-0.002-0.001zM500.234-15.132v74.447c-1.959-1.306-3.918-2.286-5.877-2.939s-3.592-1.306-4.898-1.959l-4.898-0.98c-3.918-1.306-7.673-2.286-11.265-2.939s-7.347-0.98-11.265-0.98h-4.898l-3.918 0.98c-1.959 0-4.245 0.327-6.857 0.98s-5.224 1.306-7.837 1.959h-2.939l-6.857 2.939c-1.306 0.653-11.755 6.041-31.346 16.163s-44.081 22.693-73.468 37.713c-29.387 15.020-61.55 31.673-96.488 49.958s-68.733 35.591-101.386 51.917c-30.040-18.938-55.835-34.938-77.386-47.999s-34.285-20.571-38.203-22.53c-1.306-1.306-2.775-2.612-4.408-3.918s-2.775-2.939-3.428-4.898c-1.306-1.959-2.122-4.082-2.449-6.367s-0.163-4.735 0.49-7.347c0 0 0 0 0 0 0-1.306 0.163-2.449 0.49-3.428s0.816-1.796 1.469-2.449c0-0.653 0-1.143 0-1.469s0.327-0.49 0.98-0.49c0 0 0 0 0 0 0.653-0.653 1.143-1.306 1.469-1.959s0.816-0.98 1.469-0.98c0.653-0.653 1.306-1.306 1.959-1.959s1.306-0.98 1.959-0.98c0 0 0-0.163 0-0.49s0-0.49 0-0.49c1.306-0.653 24.816-12.734 70.529-36.244s95.835-49.305 150.364-77.386c54.529-28.081 104.651-53.876 150.364-77.386s69.223-35.591 70.529-36.244c0 0 0.163 0 0.49 0s0.816 0 1.469 0c0.653-0.653 1.469-1.143 2.449-1.469s2.122-0.49 3.428-0.49c0 0 0.163 0 0.49 0s0.49 0 0.49 0c1.306 0 2.449 0 3.428 0s2.122 0.327 3.428 0.98c0 0 0.163 0 0.49 0s0.49 0 0.49 0c0.653 0.653 1.306 0.98 1.959 0.98s1.306 0.327 1.959 0.98l174.363 106.773h-146.936zM872.47 122.987h-77.386v157.711h-92.080v-157.711h-160.649v-95.998h160.649v-158.69h92.080v158.69h160.649v95.998h-83.264zM904.796 389.43c0 0.653 0 1.306 0 1.959s0 1.306 0 1.959c0 0.653-0.163 1.306-0.49 1.959s-0.816 1.306-1.469 1.959c0 0 0 0.163 0 0.49s0 0.816 0 1.469c0 0-0.163 0.163-0.49 0.49s-0.49 0.49-0.49 0.49c-0.653 0.653-1.306 1.306-1.959 1.959s-0.98 1.306-0.98 1.959c-0.653 0-1.306 0.327-1.959 0.98s-1.306 0.98-1.959 0.98c0 0-0.163 0.163-0.49 0.49s-0.49 0.49-0.49 0.49l-112.65 57.795-277.218-169.466c-2.612-1.306-5.224-2.612-7.837-3.918s-4.898-2.286-6.857-2.939l-3.918-0.98c-3.918-1.306-7.837-2.286-11.755-2.939s-8.163-0.98-12.734-0.98h-2.939l-4.898 0.98c-1.959 0-4.408 0.327-7.347 0.98s-5.714 1.306-8.326 1.959h-1.959l-6.857 2.939c-1.306 0.653-11.755 6.041-31.346 16.163s-44.081 22.693-73.468 37.713c-29.387 15.020-61.55 31.509-96.488 49.468s-68.733 35.428-101.386 52.407c-30.040-18.938-55.835-34.938-77.386-47.999s-34.285-20.897-38.203-23.51c-1.306-0.653-2.775-1.633-4.408-2.939s-2.775-2.939-3.428-4.898c-1.306-1.959-2.122-4.082-2.449-6.367s-0.163-4.735 0.49-7.347c0 0 0 0 0 0 0-1.306 0.163-2.449 0.49-3.428s0.816-2.122 1.469-3.428c0 0 0-0.163 0-0.49s0.327-0.49 0.98-0.49c0 0 0 0 0 0 0.653-0.653 1.143-1.306 1.469-1.959s0.816-1.306 1.469-1.959c0.653 0 1.306-0.327 1.959-0.98s1.306-1.306 1.959-1.959c0 0 0 0 0 0 1.306-0.653 24.816-12.734 70.529-36.244s95.835-49.305 150.364-77.386c54.529-28.081 104.651-53.876 150.364-77.386s69.223-35.591 70.529-36.244c0 0 0.163 0 0.49 0s0.816-0.327 1.469-0.98c0.653 0 1.469-0.163 2.449-0.49s2.122-0.49 3.428-0.49c0 0 0.163 0 0.49 0s0.49 0 0.49 0c1.306 0 2.449 0 3.428 0s2.122 0.327 3.428 0.98c0 0 0.163 0 0.49 0s0.49 0 0.49 0c0.653 0.653 1.306 0.98 1.959 0.98s1.306 0.327 1.959 0.98l187.098 114.609v96.977h158.69l76.407 46.040c0 0.653 0.163 1.143 0.49 1.469s0.816 0.49 1.469 0.49c0 0.653 0.326 1.143 0.98 1.469s1.306 0.816 1.959 1.469c0.653 0 1.143 0.327 1.469 0.98s0.49 1.306 0.49 1.959c0.653 0.653 0.98 0.98 0.98 0.98s0.327 0.327 0.98 0.98c0 0 0 0.163 0 0.49s0 0.816 0 1.469c0 0.653 0.163 1.306 0.49 1.959s0.49 1.306 0.49 1.959c0 0.653 0.163 1.306 0.49 1.959s0.163 1.306-0.49 1.959v0z" />
<glyph unicode="&#xe91f;" glyph-name="gripper" d="M438.887 742.385c0-70.686-57.329-128.015-128.015-128.015s-128.015 57.329-128.015 128.015c0 70.686 57.329 128.015 128.015 128.015s128.015-57.289 128.015-128.015zM694.877 614.37c70.725 0 128.015 57.329 128.015 128.015s-57.289 128.015-128.015 128.015c-70.725 0-128.015-57.329-128.015-128.015s57.289-128.015 128.015-128.015zM310.911 486.434c-70.686 0-128.015-57.408-128.015-128.015 0-70.804 57.289-127.975 127.975-127.975s128.015 57.171 128.015 127.975c0 70.607-57.289 128.015-127.975 128.015zM694.877 230.444c70.686 0 127.975 57.171 127.975 127.975 0 70.607-57.289 128.015-127.975 128.015s-128.015-57.408-128.015-128.015c0-70.804 57.329-127.975 128.015-127.975zM310.872 102.43c-70.686 0-128.015-57.289-128.015-128.015s57.329-128.015 128.015-128.015c70.686 0 128.015 57.289 128.015 128.015s-57.329 128.015-128.015 128.015zM694.877 102.43c-70.725 0-128.015-57.289-128.015-128.015s57.289-128.015 128.015-128.015c70.725 0 128.015 57.289 128.015 128.015s-57.289 128.015-128.015 128.015z" />
<glyph unicode="&#xe920;" glyph-name="help" d="M712.741 489.056c0-30.88-8.88-59.501-28.819-86.060-10.98-15.42-33.14-33.021-61.76-55.101l-30.959-19.86c-17.521-13.24-26.48-26.44-30.761-39.68-2.18-8.88-4.4-11.099-4.4-30.88v-4.44h-119.16v8.84c2.22 41.94 4.4 66.16 19.82 86.060 26.48 30.801 86.1 68.341 88.32 70.521 8.84 6.699 15.42 13.28 21.921 22.199 11.060 15.301 17.799 30.722 17.799 44.041 0 17.64-6.739 35.28-17.799 48.481-8.642 15.539-28.541 22.080-57.281 22.080-28.581 0-48.52-8.761-59.54-26.401-10.98-19.9-17.64-39.76-17.64-59.54v-4.44h-121.34v4.44c2.26 75.040 28.74 130.141 79.519 161.021 30.801 19.781 68.38 28.66 114.681 28.66 59.461 0 108.061-13.2 147.781-41.9 39.72-28.779 59.62-70.64 59.62-128.040zM575.941 113.975c0-41.94-30.841-72.78-75.040-72.741h-2.26c-41.94 2.22-72.78 33.179-72.78 77.22 2.22 41.9 33.179 70.561 75.040 70.561h2.26c44.12 0 74.921-30.88 72.78-75.040zM512-68.293c-234.713 0-426.772 192.020-426.772 426.693 0 234.713 192.059 426.653 426.772 426.653 234.673 0 426.733-191.941 426.733-426.653 0-234.673-192.059-426.693-426.733-426.693zM512 870.4c-281.687 0-512-230.392-512-512 0-281.568 230.313-512 512-512 281.489 0 512 230.432 512 512 0 281.608-230.511 512-512 512z" />
<glyph unicode="&#xe921;" glyph-name="histogram" d="M73.606 836.267h-73.606v-955.733h971.488v71.489h-897.882v884.244zM923.147 515.571l-126.182-185.039-141.937 504.693-85.162-385.868-77.805 136.697-105.152-247.089-60.974 233.38c-7.716 28.746-12.453 45.578-14.212 50.459s-4.701 7.393-8.9 7.393h-5.276l-82.004-114.626h-56.775v-479.428h812.72v479.428h-48.341z" />
<glyph unicode="&#xe922;" glyph-name="home" d="M512 833.829c0 0-316.723-273.408-493.722-421.478-10.394-9.421-18.278-23.142-18.278-39.322 0-28.314 22.886-51.2 51.2-51.2h102.4v-358.4c0-28.314 22.886-51.2 51.2-51.2h153.6c28.314 0 51.2 22.938 51.2 51.2v204.8h204.8v-204.8c0-28.262 22.886-51.2 51.2-51.2h153.6c28.314 0 51.2 22.886 51.2 51.2v358.4h102.4c28.314 0 51.2 22.886 51.2 51.2 0 16.179-7.885 29.901-19.61 39.322-175.77 148.070-492.39 421.478-492.39 421.478z" />
<glyph unicode="&#xe923;" glyph-name="imports" d="M911.486 756.348c-5.664 22.528-33.175 40.909-61.192 40.909h-727.736c-28.068 0-55.579-18.381-61.192-40.909l-10.165-61.491h870.4l-10.114 61.491zM994.293 643.657h-964.595c-17.524 0-31.205-15.053-29.566-32.512l47.295-597.453c1.947-20.173 18.959-35.635 39.25-35.635h850.637c20.342 0 37.303 15.462 39.25 35.635l47.295 597.453c1.691 17.459-12.041 32.512-29.566 32.512zM614.4 490.057c28.275 0 51.2-22.925 51.2-51.2s-22.925-51.2-51.2-51.2c-28.275 0-51.2 22.98-51.2 51.255 0 28.22 22.925 51.145 51.2 51.145zM256 182.857l127.283 307.2 144.742-246.018 124.109 64.73 64.666-125.912h-460.8z" />
<glyph unicode="&#xe924;" glyph-name="info" d="M512.027 870.4c-282.812 0-512.027-229.215-512.027-511.973 0-282.812 229.215-512.027 512.027-512.027 282.705 0 511.973 229.215 511.973 512.027 0 282.759-229.268 511.973-511.973 511.973zM559.811 685.556c49.917 0 64.583-28.958 64.583-62.077 0-41.331-33.065-79.569-89.542-79.569-47.251 0-69.756 23.732-68.37 63.037 0 33.118 27.679 78.609 93.328 78.609zM431.924 51.776c-34.132 0-59.037 20.746-35.198 111.674l39.091 161.325c6.773 25.812 7.893 36.158 0 36.158-10.186 0-54.504-17.812-80.636-35.411l-17.012 27.892c82.929 69.276 178.284 109.914 219.082 109.914 34.132 0 39.785-40.318 22.772-102.395l-44.798-169.591c-7.946-29.972-4.533-40.318 3.413-40.318 10.239 0 43.731 12.373 76.689 38.345l19.306-25.919c-80.689-80.636-168.631-111.674-202.709-111.674z" />
<glyph unicode="&#xe925;" glyph-name="input" d="M930.909 806.4h-837.818c-51.2 0-93.091-41.891-93.091-93.091v-185.716h93.091v186.647h837.818v-653.033h-837.818v187.113h-93.091v-186.647c0-51.2 41.891-92.16 93.091-92.16h837.818c51.2 0 93.091 40.96 93.091 92.16v651.636c0 51.665-41.891 93.091-93.091 93.091zM465.455 201.775l186.182 186.182-186.182 186.182v-139.636h-465.455v-93.091h465.455v-139.636z" />
<glyph unicode="&#xe926;" glyph-name="key" d="M256 504.686c0-53.541 12.142-104.155 32.841-150.016l-288.841-288.841v-109.714c0 0 65.536-109.714 146.286-109.714h146.286v146.286h146.286v146.286h182.857c202.021 0 365.714 163.694 365.714 365.714s-163.694 365.714-365.714 365.714c-202.021 0-365.714-163.694-365.714-365.714zM621.714 358.4c-80.75 0-146.286 65.536-146.286 146.286 0 80.823 65.536 146.432 146.286 146.432 80.823 0 146.286-65.536 146.286-146.432 0-80.75-65.463-146.286-146.286-146.286z" />
<glyph unicode="&#xe927;" glyph-name="link" d="M374.976 58.065l-51.84-51.52c-44.864-44.48-117.952-44.48-162.88 0-21.504 21.376-33.344 49.856-33.344 80.128s11.904 58.624 33.344 80.128l190.72 189.12c39.488 39.232 113.856 96.96 168.064 43.2 24.896-24.704 65.024-24.576 89.792 0.32 24.64 24.896 24.512 65.088-0.384 89.728-92.032 91.392-228.224 74.496-346.816-43.2l-190.72-189.184c-45.76-45.376-70.912-105.856-70.912-170.112 0-64.384 25.216-124.736 70.912-170.112 47.104-46.72 108.928-70.144 170.816-70.144s123.776 23.36 170.816 70.144l51.904 51.52c24.896 24.64 25.024 64.768 0.32 89.6-24.768 24.832-64.896 24.96-89.792 0.384zM953.024 793.041c-99.008 98.176-237.376 103.488-328.896 12.608l-64.576-64.128c-24.896-24.704-25.088-64.832-0.384-89.664 24.704-24.896 64.832-25.024 89.728-0.32l64.64 64.064c47.36 47.104 109.504 27.584 150.144-12.608 21.504-21.44 33.408-49.856 33.408-80.128s-11.904-58.688-33.408-80.064l-203.52-201.856c-93.056-92.224-136.704-49.024-155.328-30.528-24.896 24.704-65.024 24.512-89.664-0.32-24.704-24.896-24.576-65.088 0.32-89.664 42.752-42.368 91.52-63.36 142.592-63.36 62.528 0 128.64 31.488 191.552 93.888l203.52 201.792c45.568 45.44 70.848 105.856 70.848 170.112 0 64.32-25.28 124.736-70.976 170.176z" />
<glyph unicode="&#xe928;" glyph-name="load" horiz-adv-x="956" d="M529.838 3.435c14.365-14.288 21.528-31.656 21.528-51.99 0-20.257-7.163-37.664-21.528-51.952-14.326-14.326-31.656-21.489-52.144-21.489-20.295 0-37.51 7.163-51.836 21.489-14.442 14.288-21.528 31.656-21.528 51.952s7.086 37.702 21.528 51.99c14.326 14.442 31.541 21.643 51.836 21.643 20.449 0 37.818-7.202 52.144-21.643zM191.824 733.762c-25.263 0-46.791-9.050-64.891-26.996-18.1-18.023-27.035-39.705-27.035-64.968 0-25.225 8.896-46.83 27.035-64.891 18.1-17.946 39.628-26.919 64.891-26.919 25.186 0 46.945 8.973 64.968 26.919 17.869 18.023 26.919 39.628 26.919 64.891s-9.050 46.945-26.919 64.968c-18.023 17.985-39.782 26.996-64.968 26.996zM146.997 355.851c0 20.295-7.163 37.587-21.451 51.99-14.442 14.326-31.772 21.528-52.029 21.528-20.295 0-37.548-7.24-51.99-21.528-14.365-14.403-21.528-31.695-21.528-51.99 0-20.334 7.163-37.702 21.528-51.99 14.442-14.288 31.656-21.643 51.99-21.643 20.257 0 37.587 7.317 52.029 21.643 14.326 14.288 21.451 31.656 21.451 51.99zM191.824 143.308c-20.295 0-37.587-7.202-51.952-21.489-14.326-14.442-21.528-31.656-21.528-51.99 0-20.026 7.24-37.24 21.72-51.682 14.596-14.596 31.926-21.874 51.759-21.874 20.218 0 37.587 7.163 51.99 21.605 14.365 14.326 21.605 31.695 21.605 51.99s-7.24 37.548-21.605 51.99c-14.403 14.249-31.772 21.451-51.99 21.451zM854.603 550.795c25.225 25.032 37.78 55.379 37.78 91.002 0 35.276-12.555 65.546-37.78 90.809-25.34 25.263-55.61 37.857-90.694 37.857-35.661 0-66.085-12.632-91.079-37.857-25.032-25.263-37.625-55.533-37.625-90.809 0-35.623 12.555-65.97 37.625-91.002 24.994-25.032 55.418-37.587 91.079-37.587 35.084 0 65.354 12.555 90.694 37.587zM477.693 870.4c-30.501 0-56.496-10.668-77.947-32.118s-32.157-47.523-32.157-78.178c0-30.578 10.706-56.65 32.157-78.101 21.451-21.374 47.446-32.195 77.947-32.195 30.732 0 56.804 10.822 78.255 32.195 21.297 21.451 32.157 47.523 32.157 78.101 0 30.655-10.86 56.727-32.157 78.178-21.451 21.451-47.523 32.118-78.255 32.118zM934.167 407.842c-14.442 14.326-31.733 21.528-51.99 21.528s-37.664-7.24-51.952-21.528c-14.403-14.403-21.643-31.695-21.643-51.99 0-20.334 7.24-37.702 21.643-51.99 14.288-14.288 31.656-21.643 51.952-21.643 20.218 0 37.548 7.317 51.99 21.643 14.326 14.288 21.566 31.656 21.566 51.99-0.039 20.295-7.24 37.587-21.566 51.99zM763.909 143.308c-20.295 0-37.702-7.202-52.067-21.489-14.288-14.442-21.566-31.656-21.566-51.99 0-20.257 7.24-37.664 21.566-51.99 14.365-14.442 31.733-21.605 52.067-21.605 19.833 0 37.048 7.279 51.682 21.874 14.519 14.442 21.797 31.656 21.797 51.682 0 20.295-7.163 37.548-21.566 51.99-14.519 14.326-31.733 21.528-51.913 21.528z" />
<glyph unicode="&#xe929;" glyph-name="locked" horiz-adv-x="683" d="M401.664 290.731c33.323-33.323 33.323-87.339 0-120.661-5.376-5.376-11.435-9.557-17.664-13.227v-97.109c0-25.6-17.067-42.667-42.667-42.667s-42.667 17.067-42.667 42.667v97.109c-6.272 3.669-12.288 7.851-17.664 13.227-33.323 33.323-33.323 87.339 0 120.661s87.339 33.323 120.661 0v0zM597.333 17.067c0-46.933-38.4-85.333-85.333-85.333h-341.333c-46.933 0-85.333 38.4-85.333 85.333v298.667c0 46.933 38.4 85.333 85.333 85.333h341.333c46.933 0 85.333-38.4 85.333-85.333v-298.667zM170.667 614.4c0 93.867 76.8 170.667 170.667 170.667s170.667-76.8 170.667-170.667v-128h-341.333v128zM597.333 462.549v151.851c0 140.8-110.933 256-256 256-140.8 0-256-115.2-256-256v-151.851c-50.731-29.653-85.333-84.139-85.333-146.816v-298.667c0-93.867 76.8-170.667 170.667-170.667h341.333c93.867 0 170.667 76.8 170.667 170.667v298.667c0 62.677-34.645 117.163-85.333 146.816v0z" />
<glyph unicode="&#xe92a;" glyph-name="map" d="M995.686 660.275l-307.2 153.6c-14.387 7.219-31.386 7.219-45.824 0l-288.256-144.128-287.027 95.693c-15.667 5.222-32.768 2.611-46.131-7.066-13.363-9.626-21.248-25.088-21.248-41.523v-665.651c0-19.405 10.957-37.12 28.314-45.773l307.2-153.6c7.219-3.584 15.053-5.427 22.886-5.427s15.718 1.792 22.886 5.427l288.256 144.077 287.027-95.693c15.616-5.12 32.768-2.509 46.131 7.117s21.248 25.088 21.248 41.472v665.702c0.051 19.405-10.906 37.12-28.262 45.773zM409.6 582.81l204.8 102.4v-602.266l-204.8-102.4v602.266zM102.4 645.837l204.8-68.25v-597.043l-204.8 102.4v562.893zM921.6 19.814l-204.8 68.301v597.094l204.8-102.4v-562.995z" />
<glyph unicode="&#xe92b;" glyph-name="map-pin" d="M503.057 870.4c-176.879 0-320.2-142.745-320.2-319.56 0-305.727 320.2-704.44 320.2-704.44s320.2 398.777 320.2 704.44c0 176.75-143.322 319.56-320.2 319.56zM503.057 374.026c-95.548 0-172.908 77.424-172.908 172.908s77.36 172.908 172.908 172.908c95.42 0 172.844-77.424 172.844-172.908s-77.424-172.908-172.844-172.908z" />
<glyph unicode="&#xe92c;" glyph-name="minus" d="M179.2 409.6h665.6c14.138 0 25.6-11.462 25.6-25.6v-51.2c0-14.138-11.462-25.6-25.6-25.6h-665.6c-14.138 0-25.6 11.462-25.6 25.6v51.2c0 14.138 11.462 25.6 25.6 25.6z" />
<glyph unicode="&#xe92d;" glyph-name="model" d="M947.745 95.646v126.584c0 105.287-85.351 190.638-190.638 190.638h-108.936c-45.1 0-81.702 36.603-81.702 81.702v126.584c44.936 20.698 76.255 65.797 76.255 118.523 0 72.225-58.499 130.723-130.723 130.723s-130.723-58.499-130.723-130.723c0-52.671 31.374-97.825 76.255-118.523v-126.584c0-45.1-36.603-81.702-81.702-81.702h-108.936c-105.287 0-190.638-85.351-190.638-190.638v-126.584c-44.936-20.698-76.255-65.852-76.255-118.523 0-72.225 58.499-130.723 130.723-130.723s130.723 58.553 130.723 130.723c0 52.671-31.374 97.825-76.255 118.523v126.584c0 45.1 36.603 81.702 81.702 81.702h108.936c29.358 0 56.865 7.19 81.702 19.064v-227.35c-44.936-20.698-76.255-65.852-76.255-118.523 0-72.225 58.499-130.723 130.723-130.723s130.723 58.553 130.723 130.723c0 52.671-31.374 97.825-76.255 118.523v227.35c24.837-11.874 52.344-19.064 81.702-19.064h108.936c45.1 0 81.702-36.603 81.702-81.702v-126.584c-44.936-20.698-76.255-65.797-76.255-118.523 0-72.225 58.499-130.723 130.723-130.723s130.723 58.553 130.723 130.723c0 52.671-31.319 97.825-76.255 118.523zM512 815.115c41.614 0 75.384-33.716 75.384-75.438 0-41.614-33.77-75.438-75.384-75.438-41.668 0-75.384 33.825-75.384 75.438 0 41.723 33.716 75.438 75.384 75.438zM130.723-98.315c-41.723 0-75.438 33.825-75.438 75.438 0 41.723 33.716 75.438 75.438 75.438 41.614 0 75.384-33.716 75.384-75.438 0-41.614-33.77-75.438-75.384-75.438zM512-98.315c-41.723 0-75.438 33.825-75.438 75.438 0 41.723 33.716 75.438 75.438 75.438 41.614 0 75.384-33.716 75.384-75.438 0-41.614-33.77-75.438-75.384-75.438zM893.277-98.315c-41.723 0-75.438 33.825-75.438 75.438 0 41.723 33.716 75.438 75.438 75.438 41.614 0 75.384-33.716 75.384-75.438 0-41.614-33.77-75.438-75.384-75.438z" />
<glyph unicode="&#xe92e;" glyph-name="mosaic" d="M731.429 577.829h146.286c80.791 0 146.286-65.494 146.286-146.286v-438.857c0-80.791-65.494-146.286-146.286-146.286h-438.857c-80.791 0-146.286 65.494-146.286 146.286v146.286h-146.286c-80.791 0-146.286 65.494-146.286 146.286v438.857c0 80.791 65.494 146.286 146.286 146.286v0h438.857c80.791 0 146.286-65.494 146.286-146.286v-146.286zM585.143 577.829v73.143c0 40.396-32.747 73.143-73.143 73.143h-292.571c-40.396 0-73.143-32.747-73.143-73.143v-292.571c0-40.396 32.747-73.143 73.143-73.143h73.143v146.286c0 80.791 65.494 146.286 146.286 146.286v0h146.286zM512 431.543c-40.396 0-73.143-32.747-73.143-73.143v-292.571c0-40.396 32.747-73.143 73.143-73.143h292.571c40.396 0 73.143 32.747 73.143 73.143v292.571c0 40.396-32.747 73.143-73.143 73.143h-292.571z" />
<glyph unicode="&#xe92f;" glyph-name="mouse-default" d="M219.429 870.396v-796.912l180.633 174.487 168.893-401.571 131.215 55.182-162.366 385.932h263.151z" />
<glyph unicode="&#xe930;" glyph-name="pencil" d="M769.417 793.414c-112.274 81.745-192.181 79.967-222.532 75.047-8.536-1.363-15.709-6.284-20.748-13.219l-408.015-562.969c-16.42-22.644-25.905-49.557-27.387-77.477l-17.546-333.383c-1.245-24.008 22.644-41.376 45.052-32.781l311.568 119.15c26.26 10.077 49.083 27.565 65.562 50.328l407.837 562.791c5.276 7.291 7.41 16.183 5.928 25.075-4.979 31.181-28.869 106.82-139.72 187.439zM430.758 34.41l-121.106-46.771c-4.742-1.838-10.018-0.356-13.101 3.675-15.59 19.858-34.144 39.539-63.725 61.057-29.58 21.459-54.003 33.077-77.655 41.851-4.742 1.778-7.765 6.284-7.469 11.381l7.232 129.583 32.544 44.755c0 0 72.853 10.018 167.936-59.16 94.964-69.119 107.946-141.557 107.946-141.557l-32.603-44.815z" />
<glyph unicode="&#xe931;" glyph-name="plus" d="M576 409.6v281.6c0 14.138-11.462 25.6-25.6 25.6h-76.8c-14.138 0-25.6-11.462-25.6-25.6v-281.6h-268.8c-14.138 0-25.6-11.462-25.6-25.6v-76.8c0-14.138 11.462-25.6 25.6-25.6h268.8v-256c0-14.138 11.462-25.6 25.6-25.6h76.8c14.138 0 25.6 11.462 25.6 25.6v256h268.8c14.138 0 25.6 11.462 25.6 25.6v76.8c0 14.138-11.462 25.6-25.6 25.6h-268.8z" />
<glyph unicode="&#xe932;" glyph-name="polygon" d="M839.387 566.784v-516.718c-16.494-5.12-30.793-13.678-42.862-25.71-12.032-12.069-20.59-26.039-25.71-41.911h-567.15c-5.083 15.872-13.678 29.806-25.71 41.911-12.069 12.032-26.331 20.59-42.862 25.71v568.137c16.53 5.083 30.793 13.641 42.862 25.71 12.032 12.032 20.626 26.002 25.71 41.838h567.15c5.12-15.799 13.678-29.806 25.71-41.838 12.069-12.069 26.368-20.626 42.862-25.71v-51.419zM914.578 45.275v577.682c17.701 8.302 32.146 20.773 43.264 37.559 11.118 16.823 16.677 35.694 16.677 56.649 0 28.562-10.13 52.992-30.464 73.289-20.297 20.297-44.727 30.464-73.289 30.464-20.919 0-39.826-5.376-56.576-16.165-16.859-10.789-29.403-25.088-37.595-42.789h-578.67c-8.229 17.737-20.773 32-37.595 42.789-16.786 10.752-35.657 16.128-56.576 16.128-28.562 0-52.992-10.13-73.289-30.464s-30.464-44.69-30.464-73.289c0-20.955 5.559-39.79 16.677-56.649 11.118-16.75 25.527-29.257 43.264-37.559v-577.646c-17.737-8.302-32.146-20.773-43.264-37.595s-16.677-35.694-16.677-56.576c0-29.221 10.13-53.979 30.464-74.24 20.297-20.334 44.727-30.464 73.289-30.464 20.955 0 39.79 5.559 56.576 16.677 16.823 11.118 29.367 25.527 37.595 43.264h578.633c8.229-17.701 20.736-32.146 37.595-43.264 16.75-11.118 35.657-16.677 56.576-16.677 28.562 0 52.992 10.13 73.289 30.464 20.334 20.297 30.464 45.019 30.464 74.24 0 20.882-5.559 39.753-16.677 56.576s-25.527 29.33-43.227 37.595z" />
<glyph unicode="&#xe933;" glyph-name="processing" d="M712.515 157.885c-8.562-8.602-17.085-12.843-29.809-12.843-12.843 0-21.445 4.241-29.928 12.843l-165.851 165.811c-10.742 7.333-17.639 19.106-17.639 34.684v298.682c0 25.607 17.085 42.652 42.731 42.652 25.607 0 42.691-17.085 42.691-42.652v-281.597l157.804-157.923c17.085-17.085 17.085-42.533 0-59.657zM512.020-153.56c-281.637 0-512.020 230.344-512.020 511.941s230.344 512.020 512.020 512.020c281.518 0 511.98-230.423 511.98-512.020s-230.502-511.941-511.98-511.941zM512.020 785.057c-234.704 0-426.716-191.933-426.716-426.637 0-234.664 192.012-426.677 426.716-426.677 234.664 0 426.716 192.012 426.716 426.677-0.040 234.664-192.052 426.637-426.716 426.637z" />
<glyph unicode="&#xe934;" glyph-name="project" d="M968.115 134.315c0 0.718 0 1.277 0 2.074 0 0.718 0 1.356 0 1.995 0 0.798-0.199 1.356-0.479 2.154-0.399 0.598-0.598 1.396-0.598 2.074-0.638 0.598-0.997 1.277-0.997 1.476 0 0.399 0 0.598 0 0.598s-0.199 0.199-0.399 0.399c-0.479 0.519-0.678 0.997-0.678 1.676-0.598 0-1.277 0.319-2.074 1.077-0.638 0.598-0.997 1.356-0.997 1.955-0.798 0.718-1.356 1.277-2.074 1.476-0.598 0.399-1.436 0.598-2.074 0.598 0 0.718-0.199 1.077-0.399 1.077-0.479 0-0.678 0.199-0.678 1.077l-115.972 59.402-285.202-175.374c-2.713-1.396-5.465-2.553-8.098-4.149-2.673-1.277-5.027-2.194-7.061-2.952l-4.987-0.957c-4.069-1.396-7.859-2.394-11.609-2.952-3.75-0.798-7.58-1.157-11.609-1.157h-4.987l-4.029 1.157c-2.114 0-4.309 0.399-7.021 0.957-2.753 0.718-5.465 1.277-8.178 2.074h-3.032l-7.021 2.952c-1.317 0.718-12.088 6.184-32.234 16.716-20.146 10.333-45.439 23.298-75.639 38.857-30.24 15.359-63.392 32.434-99.336 51.344s-70.732 36.703-104.283 53.498c-30.918-19.468-57.527-35.984-79.788-49.349-22.181-13.484-35.266-21.224-39.296-23.099-1.317-1.476-2.793-2.753-4.508-4.149-1.715-1.277-2.832-2.952-3.551-5.027-1.317-2.194-2.114-4.309-2.513-6.583-0.279-2.274-0.080-4.907 0.399-7.58 0-1.237 0.199-2.354 0.479-3.511 0.279-0.838 0.838-1.875 1.516-2.394 0-0.718 0-1.157 0-1.556s0.279-0.638 1.037-0.638c0.678-0.678 1.197-1.237 1.476-1.955s0.838-0.957 1.516-0.957c0.598-0.838 1.317-1.396 2.035-2.194 0.678-0.678 1.436-0.957 2.114-0.957 0 0 0-0.199 0-0.519 0-0.399 0-0.678 0-0.678 1.317-0.638 25.492-13.005 72.647-37.101 47.115-24.176 98.578-50.825 154.749-79.668 56.211-28.923 107.714-55.572 154.789-79.748 47.155-24.176 71.331-36.583 72.647-37.181 0 0 0.199 0 0.479 0s0.798 0 1.516 0c0.598-0.718 1.476-1.396 2.434-1.596 0.997-0.399 2.234-0.598 3.471-0.598 0 0 0.239 0 0.559 0s0.479 0 0.479 0c1.317 0 2.513 0 3.551 0 0.997 0 2.234 0.399 3.471 1.077 0 0 0.199 0 0.559 0 0.279 0 0.399 0 0.399 0 0.718 0.678 1.396 1.077 2.035 1.077 0.678 0 1.396 0.199 2.114 0.957l434.406 266.133c0 0 0.199 0.199 0.598 0.598 0.399 0.319 0.838 0.519 1.596 0.519 0 0.678 0.279 1.157 1.077 1.476 0.678 0.399 1.237 0.957 2.074 1.556 0.678 0.798 1.157 1.157 1.476 1.556 0.279 0.399 0.479 0.878 0.479 1.596 0.798 0.798 0.957 1.157 0.957 1.556 0 0.319 0.399 0.519 1.197 0.519 0 0 0 0.199 0 0.598 0 0.279 0 0.798 0 1.476 0 0.598 0.199 1.356 0.399 2.154 0.399 0.638 0.598 1.277 0.598 1.995 0 0.798 0.199 1.356 0.519 2.074 0.479-0.359 0.279 0.279-0.439 0.997zM968.115 375.155c0 0.798 0 1.476 0 2.074 0 0.798 0 1.476 0 2.074s-0.199 1.476-0.479 2.154c-0.399 0.598-0.957 1.396-1.596 1.955 0 0 0 0.199 0 0.598s0 0.878 0 1.476c0 0-0.199 0.199-0.399 0.598-0.479 0.279-0.678 0.399-0.678 0.399-0.598 0.678-1.277 1.476-2.074 2.074-0.638 0.798-0.997 1.476-0.997 2.154-0.798 0-1.356 0.279-2.074 0.957-0.598 0.798-1.436 0.997-2.074 0.997 0 0-0.199 0.199-0.399 0.598-0.479 0.399-0.678 0.479-0.678 0.479l-115.772 59.123-285.202-174.496c-2.713-1.237-5.465-2.513-8.098-3.95-2.673-1.356-5.027-2.274-7.021-2.912l-4.069-1.197c-4.029-1.237-8.059-2.154-12.088-2.832-4.069-0.678-8.378-1.077-13.085-1.077h-2.992l-5.067 1.077c-2.035 0-4.548 0.319-7.54 1.077-3.032 0.598-5.825 1.356-8.537 1.995h-2.035l-7.061 3.112c-1.277 0.598-12.088 6.184-32.194 16.436-20.186 10.532-45.36 23.418-75.639 38.857-30.24 15.559-63.352 32.434-99.296 51.144-35.984 18.391-70.812 36.383-104.363 53.697-30.918-19.349-57.527-35.785-79.788-49.349-22.181-13.365-35.266-21.463-39.296-24.096-1.317-0.718-2.793-1.676-4.508-2.952-1.715-1.476-2.793-3.032-3.551-5.106-1.277-2.074-2.114-4.229-2.513-6.423-0.279-2.473-0.080-4.907 0.519-7.66 0-1.356 0.199-2.473 0.479-3.431 0.359-1.077 0.838-2.074 1.516-3.551 0 0 0-0.199 0-0.519 0-0.399 0.279-0.598 1.037-0.598 0.718-0.598 1.197-1.356 1.476-2.074 0.359-0.678 0.838-1.237 1.516-1.955 0.598 0 1.436-0.519 2.035-1.077 0.678-0.798 1.317-1.356 1.995-2.074 1.356-0.718 25.492-13.085 72.647-37.301 46.995-24.176 98.618-50.705 154.749-79.668 56.211-29.003 107.714-55.453 154.829-79.628 47.155-24.176 71.291-36.583 72.607-37.421 0 0 0.199 0 0.479 0s0.798-0.279 1.556-0.838c0.598 0 1.476-0.199 2.394-0.638 0.997-0.279 2.234-0.479 3.551-0.479 0 0 0.199 0 0.479 0 0.319 0 0.519 0 0.519 0 1.316 0 2.473 0 3.511 0 0.997 0 2.234 0.279 3.471 1.077 0 0 0.239 0 0.559 0s0.519 0 0.519 0c0.678 0.598 1.316 0.838 1.995 0.838s1.436 0.399 2.114 0.997l434.406 265.335c0 0.598 0.199 1.197 0.598 1.476 0.439 0.399 0.997 0.598 1.596 0.598 0 0.678 0.279 1.077 1.077 1.476 0.678 0.399 1.277 0.878 2.074 1.596 0.678 0 1.157 0.399 1.476 0.957 0.279 0.798 0.479 1.396 0.479 2.154 0.798 0.718 0.957 0.997 0.957 0.997s0.439 0.399 1.197 1.077c0 0 0 0.199 0 0.479 0 0.399 0 0.798 0 1.596 0 0.718 0.199 1.396 0.479 1.955 0.319 0.798 0.519 1.396 0.519 2.154 0 0.598 0.199 1.396 0.519 2.074 0.16 0.080-0.040 0.798-0.758 1.356zM968.115 616.235c0 0.678 0 1.396 0 2.035 0 0.678 0 1.436 0 1.995 0 0.678-0.199 1.396-0.479 1.995-0.399 0.718-0.957 1.396-1.596 2.035 0 0 0 0.199 0 0.479 0 0.399 0 0.878 0 1.636 0 0-0.199 0.12-0.399 0.519-0.479 0.279-0.678 0.479-0.678 0.479-0.598 0.758-1.277 1.436-2.074 1.995-0.559 0.718-0.957 1.037-0.957 1.037-0.798 0.678-1.356 1.157-2.074 1.476-0.598 0.359-1.436 0.838-2.074 1.556 0 0-0.199 0.080-0.399 0.479-0.479 0.279-0.678 0.519-0.678 0.519l-452.638 233.939c-0.718 0-1.237 0-1.516 0s-0.838 0-1.516 0c-0.678 0.678-1.436 0.997-2.035 0.997-0.678 0-1.277 0-1.995 0-0.718 0.598-1.396 0.997-2.035 0.997-0.678 0-1.277 0-1.995 0-0.678 0-1.396 0-2.035 0-0.678 0-0.957 0-0.957 0-1.436-0.678-2.434-1.237-3.072-1.516-0.678-0.279-1.676-0.479-2.992-0.479 0 0-0.080-0.12-0.399-0.519-0.399-0.279-0.479-0.479-0.479-0.479-1.317-0.758-23.897-14.322-67.62-40.891-43.684-26.609-91.716-55.931-144.177-88.126-52.461-32.314-101.371-62.354-146.73-90.24-45.479-27.886-71.131-43.524-77.195-46.836-1.317-0.718-2.793-1.715-4.508-3.032-1.715-1.277-2.872-2.992-3.551-5.027-1.317-1.995-2.114-4.149-2.513-6.463s-0.080-4.827 0.519-7.54c0-1.277 0.199-2.513 0.479-3.511 0.279-1.037 0.838-2.194 1.516-3.511 0 0 0-0.080 0-0.519s0.279-0.519 1.037-0.519c0 0 0-0.199 0-0.519 0-0.399 0-0.479 0-0.479 0.678-0.678 1.197-1.237 1.476-1.636 0.279-0.279 0.838-0.798 1.636-1.516 0.559-0.678 1.317-1.157 1.995-1.476 0.678-0.279 1.317-0.838 1.995-1.516 1.436-0.598 25.572-13.045 72.647-37.261 46.995-24.176 98.578-50.745 154.749-79.668 56.211-28.923 107.714-55.493 154.789-79.668s71.331-36.663 72.647-37.381c0-0.598 0.199-0.957 0.479-0.957s0.798 0 1.556 0c0.598 0 1.476-0.199 2.473-0.598 0.997-0.199 2.114-0.399 3.551-0.399 0 0 0.199 0 0.479 0s0.479 0 0.479 0c1.356 0 2.513 0 3.551 0 1.077 0 2.234 0.399 3.511 0.957 0 0 0.199 0 0.519 0 0.279 0 0.479 0 0.479 0 0.718 0 1.277 0.199 2.035 0.598 0.678 0.199 1.436 0.798 2.114 1.476l434.526 265.136c0 0.758 0.199 1.037 0.598 1.037 0.239 0 0.878 0.279 1.476 0.997 0 0 0.319 0.319 1.077 1.037 0.598 0.598 1.396 0.957 1.995 0.957 0.798 0.758 1.277 1.317 1.556 2.035 0.319 0.638 0.519 1.436 0.519 1.995 0.678 0 1.037 0.199 1.037 0.479 0 0.439 0.439 0.918 0.997 1.556 0 0 0 0.199 0 0.479 0 0.319 0 0.559 0 0.559 0 1.277 0.199 2.314 0.598 2.992 0.279 0.678 0.479 1.436 0.479 1.995 0 0.718 0.239 1.436 0.519 2.035 0.199 0.479 0 1.197-0.718 1.795z" />
<glyph unicode="&#xe935;" glyph-name="redo" d="M843.824 434.224c-92.59 80.579-212.708 130.127-345.337 130.127-232.727 0-429.419-151.648-498.487-361.353l118.115-39.038c52.551 159.656 202.698 275.269 380.371 275.269 97.595 0 186.682-36.035 256.25-94.092l-181.177-181.177h450.44v450.44l-180.176-180.176z" />
<glyph unicode="&#xe936;" glyph-name="resize" d="M855.333 595.066l-236.667-236.667 236.667-236.666 96 96c12.889 13.778 28.445 16.889 46.666 9.333 17.333-7.556 26-20.667 26-39.333v-298.667c0-11.556-4.222-21.556-12.667-30s-18.444-12.667-30-12.667h-298.667c-18.667 0-31.778 8.889-39.334 26.667-7.555 17.333-4.444 32.667 9.334 46l96 96-236.667 236.667-236.667-236.667 96-96c13.778-13.333 16.889-28.667 9.333-46-7.556-17.778-20.667-26.667-39.333-26.667h-298.667c-11.556 0-21.556 4.222-30 12.667s-12.667 18.444-12.667 30v298.667c0 18.667 8.889 31.778 26.667 39.333 17.333 7.556 32.667 4.444 46-9.333l96-96 236.667 236.666-236.667 236.667-96-96c-8.444-8.444-18.444-12.667-30-12.667-5.333 0-10.667 1.111-16 3.333-17.778 7.556-26.667 20.667-26.667 39.334v298.667c0 11.556 4.222 21.555 12.667 30s18.444 12.667 30 12.667h298.667c18.667 0 31.778-8.889 39.333-26.667 7.556-17.333 4.444-32.667-9.333-46l-96-96 236.667-236.667 236.667 236.667-96 96c-13.778 13.333-16.889 28.667-9.334 46 7.556 17.778 20.667 26.667 39.334 26.667h298.667c11.556 0 21.555-4.222 30-12.667s12.667-18.444 12.667-30v-298.667c0-18.667-8.667-31.778-26-39.334-5.777-2.222-11.333-3.333-16.666-3.333-11.556 0-21.556 4.222-30 12.667l-96 96z" />
<glyph unicode="&#xe937;" glyph-name="retry" d="M1006.080 365.531h-127.514v11.020c-5.806 238.363-200.195 429.849-439.149 429.849-242.717 0-439.417-197.399-439.417-440.869s196.7-440.761 439.417-440.761c102.033 0 195.948 34.943 270.564 93.431l-75.584 80.852c-54.618-40.211-122.031-64.133-194.98-64.133-182.024 0-329.59 148.049-329.59 330.611s147.566 330.611 329.59 330.611c178.315 0 323.515-142.082 329.267-319.591v-11.020h-143.641l187.83-209.333 193.206 209.333z" />
<glyph unicode="&#xe938;" glyph-name="ruler" d="M729.545 847.957l-707.132-707.177c-29.901-29.899-29.901-78.74 0.102-108.741l163.074-163.163c29.901-29.899 78.9-30.001 108.75-0.102l707.234 707.177c29.901 29.95 29.901 78.894 0 108.793l-163.125 163.214c-30.055 30.001-78.951 29.848-108.904 0zM201.155 86.46l-38.861-38.858-97.076 97.12 38.861 38.858 97.076-97.12zM356.6 86.46l-38.861-38.858-174.85 174.836 38.861 38.909 174.85-174.887zM356.6 241.893l-38.861-38.858-97.179 97.069 38.912 38.909 97.128-97.12zM434.322 319.609l-38.861-38.858-97.076 97.069 38.861 38.909 97.076-97.12zM589.716 319.609l-38.861-38.858-174.799 174.785 38.861 38.858 174.799-174.785zM589.716 474.99l-38.861-38.858-97.076 97.069 38.861 38.858 97.076-97.069zM667.439 552.655l-38.861-38.858-97.128 97.12 38.861 38.858 97.128-97.12zM822.884 552.655l-38.912-38.858-174.799 174.836 38.861 38.909 174.85-174.887zM822.833 708.037l-38.861-38.858-97.076 97.171 38.861 38.807 97.076-97.12z" />
<glyph unicode="&#xe939;" glyph-name="save" d="M843.072 870.4h-715.072c-70.464 0-128-57.6-128-128v-768c0-70.4 57.536-128 128-128h768c70.464 0 128 57.6 128 128v695.872l-180.928 200.128zM768 486.4c0-35.136-28.8-64-64-64h-384c-35.2 0-64 28.864-64 64v320h512v-320zM704 742.4h-128v-256h128v256z" />
<glyph unicode="&#xe93a;" glyph-name="search" d="M708.923 437.169c0 75.897-26.974 140.82-80.923 194.769s-118.872 80.923-194.769 80.923c-75.897 0-140.82-26.974-194.769-80.923s-80.923-118.872-80.923-194.769c0-75.897 26.974-140.821 80.923-194.769s118.872-80.923 194.769-80.923c75.898 0 140.821 26.974 194.769 80.923s80.923 118.872 80.923 194.769zM1024-74.831c0-21.333-7.795-39.795-23.385-55.385s-34.051-23.385-55.384-23.385c-22.154 0-40.615 7.795-55.385 23.385l-211.077 210.462c-73.436-50.872-155.282-76.308-245.539-76.308-58.667 0-114.769 11.385-168.308 34.154s-99.692 53.538-138.462 92.308c-38.769 38.769-69.538 84.923-92.308 138.462s-34.154 109.641-34.154 168.308c0 58.667 11.385 114.769 34.154 168.308s53.538 99.693 92.308 138.462c38.769 38.769 84.923 69.538 138.462 92.308s109.641 34.154 168.308 34.154c58.667 0 114.769-11.385 168.308-34.154s99.692-53.538 138.462-92.308c38.769-38.769 69.538-84.923 92.308-138.462s34.154-109.641 34.154-168.308c0-90.257-25.436-172.103-76.308-245.539l211.077-211.077c15.18-15.179 22.769-33.641 22.769-55.385z" />
<glyph unicode="&#xe93b;" glyph-name="settings" d="M193.943 300.75v523.121c0 13.315-5.372 24.399-16.077 33.251s-23.832 13.278-39.341 13.278c-15.509 0-28.825-4.426-39.908-13.315s-16.606-19.935-16.606-33.213v-519.755c-24.399-10.327-44.145-26.782-59.276-49.328s-22.735-47.474-22.735-74.823c0-28.068 7.566-53.186 22.735-75.353s34.915-38.433 59.276-48.76v-162.925c0-12.559 5.523-23.453 16.606-32.683s24.399-13.845 39.908-13.845c15.509 0 28.636 4.615 39.341 13.845s16.077 20.124 16.077 32.683v165.119c22.886 11.084 41.384 27.539 55.418 49.328s21.070 45.999 21.070 72.592c0 26.593-7.036 50.614-21.070 72.024s-32.532 37.677-55.418 48.76zM135.197 106.807c-19.935 0-36.958 7.036-50.992 21.070s-21.032 30.678-21.032 49.857c0 19.935 7.036 36.958 21.070 50.992s31.019 21.070 50.992 21.070c19.973 0 36.769-7.036 50.425-21.070s20.503-31.019 20.503-50.992c0-19.217-6.847-35.823-20.503-49.857s-30.489-21.070-50.462-21.070zM556.334 637.683v186.189c0 13.315-5.523 24.399-16.606 33.251s-24.021 13.278-38.811 13.278c-15.509 0-28.825-4.426-39.908-13.315s-16.606-19.935-16.606-33.251v-186.189c-23.642-10.327-42.859-26.593-57.612-48.76s-22.167-46.907-22.167-74.256c0-27.35 7.376-51.9 22.167-73.689s33.969-38.244 57.612-49.328v-498.685c0-12.559 5.523-23.453 16.606-32.683s24.399-13.845 39.908-13.845c14.791 0 27.69 4.615 38.774 13.845s16.606 20.124 16.606 32.683v499.819c22.886 10.327 41.762 26.593 56.515 48.76s22.167 46.528 22.167 73.159c0 27.35-7.376 51.9-22.167 73.689s-33.591 38.244-56.477 49.328zM499.819 440.411c-19.935 0-36.958 7.036-50.992 21.070s-21.032 30.641-21.032 49.857c0 19.935 7.036 36.958 21.070 50.992s31.019 21.070 50.992 21.070c19.973 0 36.769-7.036 50.425-21.070s20.503-31.019 20.503-50.992c0-19.217-6.847-35.823-20.503-49.857s-30.527-21.070-50.462-21.070zM897.655 301.885v521.987c0 13.315-5.372 24.399-16.077 33.251s-23.794 13.278-39.303 13.278c-15.509 0-28.825-4.426-39.908-13.315s-16.606-19.935-16.606-33.251v-520.852c-23.642-10.327-43.048-26.593-58.179-48.76s-22.735-46.907-22.735-74.256c0-28.068 7.566-53.186 22.735-75.353s34.537-38.433 58.179-48.76v-162.925c0-12.559 5.523-23.453 16.606-32.683s24.399-13.845 39.908-13.845c15.509 0 28.636 4.615 39.341 13.845s16.077 20.124 16.077 32.683v165.119c22.886 10.327 41.573 26.404 55.947 48.193s21.6 46.377 21.6 73.689c0 26.593-7.187 50.803-21.6 72.592s-33.062 38.282-55.985 49.365zM840.043 106.807c-19.935 0-36.769 7.036-50.425 21.070s-20.503 30.678-20.503 49.857c0 19.935 6.847 36.958 20.503 50.992s30.489 21.070 50.425 21.070c19.935 0 36.958-7.036 50.992-21.070s21.070-31.019 21.070-50.992c0-19.217-7.036-35.823-21.070-49.857s-31.057-21.070-50.992-21.070z" />
<glyph unicode="&#xe93c;" glyph-name="share" d="M836.601 146.074c-42.365 0-80.581-15.175-109.561-39.603l-397.419 213.621c3.079 11.597 5.020 23.688 5.020 36.025s-1.941 24.366-5.020 35.963l393.203 211.524c29.85-25.723 69.739-41.639 113.778-41.639 92.294 0 167.32 69.151 167.32 154.217s-75.026 154.217-167.32 154.217c-92.294 0-167.32-69.151-167.32-154.217 0-12.337 1.941-24.428 5.020-35.963l-393.203-211.524c-29.85 25.662-69.739 41.639-113.778 41.639-92.294 0-167.32-69.151-167.32-154.217s75.026-154.217 167.32-154.217c44.039 0 83.928 15.915 113.778 41.639l397.419-213.621c-2.811-10.795-4.484-22.084-4.484-33.681 0-82.784 72.751-149.837 162.568-149.837s162.568 67.115 162.568 149.837c0 82.722-72.751 149.837-162.568 149.837z" />
<glyph unicode="&#xe93d;" glyph-name="source-data" d="M982.486 870.4h-982.486v-1022.935h1024v1022.935h-41.514zM499.225 751.182c7.096 2.839 14.547 5.145 22.353 6.919s15.612 2.661 23.418 2.661c4.258 0 8.338-0.355 12.241-1.064s7.629-1.419 11.177-2.129c4.258-0.71 8.161-1.419 11.709-2.129s7.451-1.774 11.709-3.193c7.806-2.129 15.434-4.435 22.886-6.919s14.725-4.79 21.821-6.919c4.258-1.419 8.161-2.839 11.709-4.258s7.096-2.484 10.644-3.193c3.548-1.419 7.096-3.016 10.644-4.79s7.096-3.371 10.644-4.79c7.096-3.548 14.015-7.274 20.757-11.177s13.66-7.629 20.757-11.177c3.548-2.129 7.096-4.080 10.644-5.854s7.096-3.726 10.644-5.854c1.419-0.71 3.016-1.597 4.79-2.661s3.371-1.951 4.79-2.661c2.129-0.71 3.726-1.774 4.79-3.193s2.306-2.839 3.726-4.258c2.129-2.839 4.258-5.854 6.387-9.048s4.613-6.209 7.451-9.048c2.129-3.548 4.435-6.564 6.919-9.048s5.145-4.79 7.983-6.919c2.839-2.839 5.854-5.145 9.048-6.919s6.209-3.726 9.048-5.854c2.129-0.71 3.903-1.597 5.322-2.661s3.193-1.951 5.322-2.661c1.419-1.419 3.016-2.661 4.79-3.726s3.371-1.951 4.79-2.661c3.548-2.129 6.919-4.435 10.112-6.919s6.564-4.79 10.112-6.919c1.419-0.71 3.016-1.597 4.79-2.661s3.371-2.306 4.79-3.726c1.419-1.419 3.016-2.661 4.79-3.726s3.371-1.951 4.79-2.661c3.548-2.129 6.742-4.435 9.58-6.919s5.677-4.79 8.516-6.919c3.548-2.129 7.096-3.903 10.645-5.322s7.096-2.484 10.644-3.193c2.129-0.71 4.080-1.242 5.854-1.597s3.726-0.887 5.854-1.597c0.71 0 1.597-0.177 2.661-0.532s1.951-0.532 2.661-0.532c0.71 0 1.242-0.177 1.597-0.532s0.532-0.532 0.532-0.532c0 0 0.177 0 0.532 0s0.532 0 0.532 0c0 0 0 0 0 0 0-8.516 0-16.676 0-24.482s0-15.612 0-23.418c0-8.516 0-16.676 0-24.482s0-15.967 0-24.482c0-4.258 0-8.338 0-12.241s0-7.983 0-12.241c-7.806 2.839-15.612 5.322-23.418 7.451s-15.257 4.258-22.353 6.387c-7.806 2.129-15.612 4.258-23.418 6.387s-15.612 4.258-23.418 6.387c-4.258 0.71-8.161 1.597-11.709 2.661s-7.451 1.951-11.709 2.661c0 0 0 0 0 0 14.193-2.839 16.854-2.839 7.983 0s-11.886 2.839-9.048 0c0 0.71-0.177 1.064-0.532 1.064s-0.532 0-0.532 0c-0.71 0.71-1.242 1.064-1.597 1.064s-0.887 0.355-1.597 1.064c-0.71 0-1.419 0.355-2.129 1.064s-1.419 1.064-2.129 1.064c-2.129 1.419-3.903 2.484-5.322 3.193s-3.193 1.419-5.322 2.129c-1.419 0.71-3.016 1.419-4.79 2.129s-3.371 1.419-4.79 2.129c-1.419 1.419-3.016 2.661-4.79 3.726s-3.371 1.951-4.79 2.661c-2.839 2.839-5.5 5.677-7.983 8.516s-5.145 5.677-7.983 8.516c-4.967 6.387-10.112 12.419-15.434 18.096s-11.177 11.354-17.563 17.031c-5.677 5.677-11.354 10.999-17.031 15.967s-11.354 10.29-17.031 15.967c-5.677 5.677-10.999 11.177-15.967 16.499s-10.29 10.467-15.967 15.434c-2.839 2.129-5.854 4.258-9.048 6.387s-6.209 4.258-9.048 6.387c-3.548 1.419-6.919 3.016-10.112 4.79s-6.564 3.726-10.112 5.854c-3.548 2.129-6.919 4.258-10.112 6.387s-6.564 4.258-10.112 6.387c-1.419 0.71-2.839 1.597-4.258 2.661s-3.193 1.951-5.322 2.661c-1.419 1.419-2.839 2.661-4.258 3.726s-2.839 1.951-4.258 2.661c-1.419 1.419-3.016 2.484-4.79 3.193s-3.371 1.419-4.79 2.129c-2.129 0.71-4.080 1.419-5.854 2.129s-3.371 1.064-4.79 1.064c-4.258 1.419-8.338 2.129-12.241 2.129s-7.629 0-11.177 0c-2.129 0.71-4.258 1.064-6.387 1.064s-3.903 0-5.322 0c-2.129 0-4.258 0.177-6.387 0.532s-3.903 0.532-5.322 0.532c-2.129 0-4.258 0-6.387 0s-3.903 0-5.322 0c-2.129-0.71-4.080-1.419-5.854-2.129s-3.371-1.419-4.79-2.129c-7.096-3.548-14.37-6.919-21.821-10.112s-14.725-6.209-21.821-9.048c-7.806-3.548-15.435-6.742-22.886-9.58s-14.725-6.032-21.821-9.58c-7.806-2.839-15.435-5.854-22.886-9.048s-14.725-6.209-21.821-9.048c-3.548-1.419-7.096-3.016-10.644-4.79s-7.096-3.016-10.644-3.726c-2.129-0.71-4.080-1.419-5.854-2.129s-3.371-1.419-4.79-2.129c-2.129 0-4.080-0.177-5.854-0.532s-3.726-0.887-5.854-1.597c-7.806-1.419-15.612-3.016-23.418-4.79s-15.967-3.726-24.482-5.854c-7.806-1.419-15.612-3.016-23.418-4.79s-15.612-3.726-23.418-5.854c-7.806-1.419-15.612-3.016-23.418-4.79s-15.612-3.371-23.418-4.79c-8.516-2.129-16.676-3.903-24.482-5.322s-15.612-3.193-23.418-5.322c-2.839 0-5.5-0.355-7.983-1.064s-5.145-1.064-7.983-1.064c0 7.806 0 15.789 0 23.95s0 16.144 0 23.95c0 0.71 0 1.242 0 1.597s0 0.887 0 1.597c0 0 0 0.177 0 0.532s0 0.532 0 0.532c0 0 0.355 0 1.064 0 0 0 0.355 0 1.064 0s1.419 0.355 2.129 1.064c1.419 0 3.193 0.355 5.322 1.064s3.903 1.419 5.322 2.129c4.258 0.71 8.161 1.774 11.709 3.193s7.451 2.839 11.709 4.258c3.548 1.419 7.274 2.661 11.177 3.726s7.629 2.306 11.177 3.726c4.258 0.71 8.161 1.597 11.709 2.661s7.451 2.306 11.709 3.726c7.096 2.129 14.547 4.435 22.353 6.919s15.612 4.79 23.418 6.919c7.096 2.129 14.547 4.258 22.353 6.387s15.612 4.258 23.418 6.387c7.806 2.129 15.434 4.435 22.886 6.919s14.725 5.5 21.821 9.048c7.096 2.839 14.193 6.209 21.289 10.112s13.838 7.983 20.225 12.241c7.096 3.548 14.015 7.451 20.757 11.709s13.306 8.161 19.692 11.709c7.096 4.258 14.015 8.161 20.757 11.709s14.015 6.387 21.821 8.516c1.419 0.71 3.193 1.419 5.322 2.129s3.903 1.064 5.322 1.064c2.129 0.71 4.258 1.419 6.387 2.129s3.903 1.419 5.322 2.129c4.258 0.71 8.161 1.774 11.709 3.193s7.451 2.484 11.709 3.193v0zM846.236 128.478c0.71-1.419 1.419-2.484 2.129-3.193s1.064-1.419 1.064-2.129c0 0 0 0 0 0s0 0.177 0 0.532c0 0.355 0 0.532 0 0.532-4.967 6.387-9.58 12.773-13.838 19.16s-8.161 12.773-11.709 19.16c-4.258 6.387-8.516 13.128-12.773 20.225s-8.516 13.838-12.773 20.225c-3.548 7.096-7.451 14.193-11.709 21.289s-8.516 13.838-12.773 20.225c-3.548 7.096-7.274 14.015-11.177 20.757s-7.983 13.66-12.241 20.757c-4.258 6.387-8.516 12.773-12.773 19.16s-8.87 12.419-13.838 18.096c-2.129 2.839-4.613 5.677-7.451 8.516s-5.322 6.032-7.451 9.58c-2.129 2.839-4.435 5.854-6.919 9.048s-4.79 6.564-6.919 10.112c-2.838 2.838-5.322 5.854-7.451 9.048s-4.613 6.209-7.451 9.048c-2.129 2.839-4.613 5.5-7.451 7.983s-5.677 4.79-8.516 6.919c-2.839 2.839-5.854 5.322-9.048 7.451s-6.209 4.613-9.048 7.451c-3.548 2.129-6.742 4.613-9.58 7.451s-5.677 5.322-8.516 7.451c-1.419 1.419-2.661 2.661-3.726 3.726s-2.306 2.306-3.726 3.726c-2.129 0.71-3.903 1.597-5.322 2.661s-2.839 1.951-4.258 2.661c-3.548 1.419-7.274 2.484-11.177 3.193s-7.629 1.064-11.177 1.064c-2.129 0.71-4.080 1.242-5.854 1.597s-3.726 0.532-5.854 0.532c-2.129 0.71-4.080 1.242-5.854 1.597s-3.726 0.887-5.854 1.597c-4.258 0.71-8.338 1.419-12.241 2.129s-7.629 1.064-11.177 1.064c-7.806 1.419-15.789 2.129-23.95 2.129s-16.144 0.355-23.95 1.064c-4.258 0-8.338 0.177-12.241 0.532s-7.629 0.887-11.177 1.597c-2.129 0-4.258 0.177-6.387 0.532s-3.903 0.887-5.322 1.597c-2.129 0-4.258 0.177-6.387 0.532s-4.258 0.532-6.387 0.532c-7.806 0.71-15.612 0.887-23.418 0.532s-15.967-0.887-24.482-1.597c-1.419-0.71-3.193-1.064-5.322-1.064s-4.258-0.355-6.387-1.064c-2.129 0-4.080 0-5.854 0s-3.726 0.355-5.854 1.064c-4.258 0-8.338-0.177-12.241-0.532s-7.629-0.887-11.177-1.597c-3.548-0.71-7.274-1.597-11.177-2.661s-7.629-2.306-11.177-3.726c-2.129-0.71-4.080-1.242-5.854-1.597s-3.726-0.532-5.854-0.532c-2.129-0.71-4.080-1.242-5.854-1.597s-3.726-0.532-5.854-0.532c-3.548-0.71-7.274-1.597-11.177-2.661s-7.983-1.951-12.241-2.661c-3.548-0.71-7.274-1.597-11.177-2.661s-7.629-2.306-11.177-3.726c-7.806-2.129-15.612-4.258-23.418-6.387s-15.612-4.258-23.418-6.387c-3.548-1.419-7.274-2.661-11.177-3.726s-7.629-2.306-11.177-3.726c-4.258-1.419-8.161-2.661-11.709-3.726s-7.451-2.306-11.709-3.726c-3.548-1.419-7.096-2.838-10.644-4.258s-7.451-2.839-11.709-4.258c-1.419-0.71-3.016-1.419-4.79-2.129s-3.726-1.419-5.854-2.129c-2.129-0.71-4.080-1.242-5.854-1.597s-3.726-0.887-5.854-1.597c-0.71 0-1.597 0-2.661 0s-2.306 0-3.726 0c-1.419 0-2.661 0-3.726 0s-2.306 0-3.726 0c0 7.806 0 15.789 0 23.95s0 16.144 0 23.95c0 8.516 0 16.676 0 24.482s0 15.967 0 24.482c0 0.71 0 1.597 0 2.661s0 1.951 0 2.661c0 0.71 0 1.064 0 1.064s0.355 0 1.064 0c0 0 0.177 0 0.532 0s0.532 0 0.532 0c2.129 0.71 3.903 1.242 5.322 1.597s3.193 0.532 5.322 0.532c3.548 0.71 7.451 1.419 11.709 2.129s8.161 1.419 11.709 2.129c7.806 2.129 15.612 3.903 23.418 5.322s15.967 3.193 24.482 5.322c7.806 1.419 15.612 3.016 23.418 4.79s15.612 3.371 23.418 4.79c7.806 2.129 15.612 4.080 23.418 5.854s15.612 3.371 23.418 4.79c2.129 0.71 4.258 1.242 6.387 1.597s4.258 0.887 6.387 1.597c1.419 0.71 3.193 1.242 5.322 1.597s3.903 0.887 5.322 1.597c4.258 0.71 8.338 1.242 12.241 1.597s7.629 1.242 11.177 2.661c4.258 0.71 8.161 1.419 11.709 2.129s7.451 1.774 11.709 3.193c3.548 1.419 7.096 2.839 10.644 4.258s7.096 2.838 10.644 4.258c3.548 2.129 7.096 4.080 10.644 5.854s7.096 3.371 10.644 4.79c3.548 1.419 7.096 3.016 10.644 4.79s7.451 3.371 11.709 4.79c7.096 3.548 14.37 6.919 21.821 10.112s14.725 6.209 21.821 9.048c4.258 2.129 8.161 3.903 11.709 5.322s7.096 3.193 10.644 5.322c3.548 1.419 7.096 3.016 10.644 4.79s7.096 3.371 10.644 4.79c0.71 0 1.242 0.177 1.597 0.532s0.532 0.532 0.532 0.532c0.71 0 1.242 0 1.597 0s0.532-0.355 0.532-1.064c1.419 0 2.484-0.177 3.193-0.532s1.774-0.532 3.193-0.532c1.419 0 3.193 0 5.322 0s3.903-0.355 5.322-1.064c2.129 0 4.258 0 6.387 0s3.903 0 5.322 0c1.419 0 2.484 0 3.193 0s1.774-0.355 3.193-1.064c0.71 0 1.419-0.355 2.129-1.064s1.419-1.064 2.129-1.064c3.548-2.129 6.742-4.435 9.58-6.919s6.032-4.79 9.58-6.919c3.548-1.419 7.096-3.193 10.644-5.322s6.742-4.258 9.58-6.387c2.129-1.419 3.903-2.661 5.322-3.726s3.193-1.951 5.322-2.661c1.419-0.71 3.016-1.597 4.79-2.661s3.371-1.951 4.79-2.661c2.129-1.419 3.903-2.661 5.322-3.726s2.839-1.951 4.258-2.661c1.419-1.419 2.839-2.839 4.258-4.258s2.839-2.839 4.258-4.258c2.129-2.839 4.613-5.677 7.451-8.516s5.677-5.677 8.516-8.516c2.839-2.129 5.854-4.613 9.048-7.451s6.209-5.677 9.048-8.516c5.677-4.967 11.354-10.29 17.031-15.967s10.999-11.354 15.967-17.031c5.677-5.677 10.999-11.531 15.967-17.563s10.29-11.532 15.967-16.499c2.839-2.838 5.677-5.5 8.516-7.983s6.032-4.435 9.58-5.854c2.839-2.129 6.032-4.080 9.58-5.854s6.742-3.371 9.58-4.79c3.548-2.129 7.096-4.080 10.644-5.854s7.096-3.371 10.644-4.79c3.548-1.419 7.096-2.839 10.644-4.258s7.096-2.484 10.644-3.193c7.806-2.129 15.612-4.080 23.418-5.854s15.612-3.726 23.418-5.854c2.129-0.71 4.080-1.419 5.854-2.129s3.726-1.064 5.854-1.064c1.419-0.71 3.193-1.419 5.322-2.129s3.903-1.064 5.322-1.064c4.258-0.71 8.338-1.597 12.241-2.661s7.629-1.951 11.177-2.661c2.839-0.71 5.5-1.597 7.983-2.661s5.145-1.951 7.983-2.661c1.419 0 2.661-0.177 3.726-0.532s1.951-0.887 2.661-1.597c0.71 0 1.242 0 1.597 0s0.532 0 0.532 0c0 0 0.177 0 0.532 0s0.532-0.355 0.532-1.064c0 0 0 0 0 0 0-7.806 0-15.612 0-23.418s0-15.967 0-24.482c0-7.806 0-15.789 0-23.95s0-16.144 0-23.95c0-8.516 0-16.676 0-24.482s0-15.967 0-24.482c0-7.806 0-15.789 0-23.95s0-16.144 0-23.95c0-7.806 0-15.789 0-23.95s0-16.144 0-23.95c0-8.516 0-16.676 0-24.482s0-15.967 0-24.482c0-2.129 0-4.258 0-6.387s0-4.258 0-6.387c-3.548 1.419-7.096 3.016-10.644 4.79s-7.096 3.371-10.644 4.79c-3.548 0.71-7.096 1.774-10.644 3.193s-7.096 2.839-10.644 4.258c-1.419 1.419-2.839 2.661-4.258 3.726s-2.839 1.951-4.258 2.661c-1.419 1.419-3.016 2.839-4.79 4.258s-3.371 2.838-4.79 4.258c-1.419 1.419-2.839 2.661-4.258 3.726s-2.839 2.306-4.258 3.726c-0.71 0.71-1.419 1.242-2.129 1.597s-1.419 0.887-2.129 1.597c-0.71 0.71-1.242 1.242-1.597 1.597s-0.887 0.532-1.597 0.532c0 0 0 0 0 0 3.548-2.129 2.129 0.532-4.258 7.983s-6.387 6.919 0-1.597v0zM84.089 787.373h343.817c0 0-0.177 0-0.532 0s-0.177 0 0.532 0c-7.096-2.839-13.838-5.854-20.225-9.048s-13.128-6.564-20.225-10.112c-6.387-4.258-12.951-8.338-19.692-12.241s-13.66-7.983-20.757-12.241c-3.548-2.129-6.919-4.080-10.112-5.854s-6.564-3.726-10.112-5.854c-3.548-2.129-6.919-3.903-10.112-5.322s-6.564-2.838-10.112-4.258c-7.096-3.548-14.37-6.564-21.821-9.048s-15.080-4.79-22.886-6.919c-3.548-1.419-7.274-2.484-11.177-3.193s-7.629-1.774-11.177-3.193c-4.258-0.71-8.161-1.597-11.709-2.661s-7.451-2.306-11.709-3.726c-7.806-2.129-15.435-4.435-22.886-6.919s-15.080-4.79-22.886-6.919c-3.548-0.71-7.274-1.597-11.177-2.661s-7.629-2.306-11.177-3.726c-4.258-1.419-8.161-2.661-11.709-3.726s-7.451-2.306-11.709-3.726c-3.548-1.419-7.274-2.661-11.177-3.726s-7.629-2.306-11.177-3.726c-3.548-0.71-6.742-1.419-9.58-2.129s-5.677-1.774-8.516-3.193v134.121zM668.472-41.834c-1.419 0-2.484 0-3.193 0s-1.419 0-2.129 0-2.839 0-4.258 0c-1.419 0-2.484 0-3.193 0-2.129 0-4.080 0-5.854 0s-3.371 0-4.79 0c-2.129 0-4.435 0-6.919 0s-4.79 0-6.919 0c-2.129 0-4.435 0-6.919 0s-5.145 0-7.983 0c-2.839 0-5.677 0-8.516 0s-5.677 0-8.516 0c-3.548 0-6.919 0-10.112 0s-6.209 0-9.048 0c-3.548 0-7.096 0-10.644 0s-6.742 0-9.58 0c-3.548 0-7.274 0-11.177 0s-7.629 0-11.177 0c-3.548 0-7.274 0-11.177 0s-7.629 0-11.177 0c-4.258 0-8.338 0-12.241 0s-7.629 0-11.177 0c-4.258 0-8.338 0-12.241 0s-7.983 0-12.241 0c-4.258 0-8.338 0-12.241 0s-7.983 0-12.241 0c-3.548 0-7.451 0-11.709 0s-8.161 0-11.709 0c-4.258 0-8.338 0-12.241 0s-7.983 0-12.241 0c-4.258 0-8.338 0-12.241 0s-7.629 0-11.177 0c-4.258 0-8.161 0-11.709 0s-7.451 0-11.709 0c-3.548 0-7.096 0-10.644 0s-7.096 0-10.644 0c-3.548 0-7.096 0-10.644 0s-7.096 0-10.644 0c-2.839 0-5.854 0-9.048 0s-6.564 0-10.112 0c-2.838 0-5.677 0-8.516 0s-5.677 0-8.516 0c-2.838 0-5.5 0-7.983 0s-5.145 0-7.983 0c-2.129 0-4.258 0-6.387 0s-4.258 0-6.387 0c-2.129 0-4.080 0-5.854 0s-3.726 0-5.854 0c-1.419 0-2.661 0-3.726 0s-2.306 0-3.726 0c-1.419 0-2.484 0-3.193 0s-1.419 0-2.129 0c-0.71 0-1.242 0-1.597 0s-0.532 0-0.532 0c0 0 0 3.371 0 10.112s0 10.822 0 12.241c0 7.806 0.177 15.789 0.532 23.95s0.532 16.144 0.532 23.95c0 0.71 0 1.242 0 1.597s0 0.887 0 1.597c0 0.71 0 1.242 0 1.597s0 0.887 0 1.597c0.71 0.71 1.242 1.597 1.597 2.661s0.532 1.951 0.532 2.661c0.71 1.419 1.419 3.193 2.129 5.322s1.419 3.903 2.129 5.322c0 1.419 0.177 2.484 0.532 3.193s0.532 1.419 0.532 2.129c0.71 0.71 1.064 1.242 1.064 1.597s0 0.887 0 1.597c0.71 0 1.242 0.177 1.597 0.532s0.532 0.532 0.532 0.532c1.419 1.419 2.839 2.839 4.258 4.258s2.839 2.839 4.258 4.258 5.677 5.5 8.516 7.983c2.839 2.484 5.677 5.145 8.516 7.983 1.419 0.71 2.839 1.774 4.258 3.193s3.193 2.484 5.322 3.193c1.419 0.71 2.838 1.419 4.258 2.129s3.193 1.419 5.322 2.129c3.548 1.419 7.096 2.484 10.644 3.193s7.096 1.419 10.644 2.129c4.258 1.419 8.338 2.661 12.241 3.726s7.629 2.306 11.177 3.726c7.806 2.129 15.435 4.435 22.886 6.919s15.080 5.145 22.886 7.983c3.548 1.419 7.274 2.661 11.177 3.726s7.629 2.306 11.177 3.726c2.129 0.71 4.080 1.419 5.854 2.129s3.726 1.774 5.854 3.193c1.419 0 3.016 0.355 4.79 1.064s3.726 1.419 5.854 2.129c3.548 0.71 7.274 1.242 11.177 1.597s7.983 0.887 12.241 1.597c3.548 0 7.274 0.177 11.177 0.532s7.983 0.532 12.241 0.532c7.806 0 15.612-0.532 23.418-1.597s15.257-3.016 22.353-5.854c7.096-2.129 14.015-4.79 20.757-7.983s13.306-6.919 19.692-11.177c3.548-2.129 6.742-4.258 9.58-6.387s5.677-4.258 8.516-6.387c2.839-2.839 5.677-5.677 8.516-8.516s5.322-5.677 7.451-8.516c2.839-2.839 5.5-5.854 7.983-9.048s4.79-6.209 6.919-9.048c2.839-3.548 5.5-6.919 7.983-10.112s4.79-6.209 6.919-9.048c4.967-6.387 9.757-12.773 14.37-19.16s9.403-12.773 14.37-19.16c4.967-6.387 9.757-12.951 14.37-19.692s9.403-13.306 14.37-19.692c1.419-2.129 3.016-4.435 4.79-6.919s3.371-4.79 4.79-6.919c0 0-0.177 0-0.532 0s-0.532 0-0.532 0v0zM745.112-41.834c-0.71 0-1.242 0-1.597 0s-0.887 0-1.597 0c0 0-0.177 0-0.532 0s-0.532 0-0.532 0c0 0 0 0 0 0s0 0 0 0 0 0 0 0 0 0.177 0 0.532c0 0.355 0 0.532 0 0.532s0 0 0 0 0 0 0 0c-2.839 2.839-5.322 6.032-7.451 9.58s-4.613 6.741-7.451 9.58c-4.258 6.387-8.87 12.951-13.838 19.692s-9.58 13.306-13.838 19.692c-4.967 6.387-9.757 12.773-14.37 19.16s-9.403 12.773-14.37 19.16c-4.967 7.096-9.935 13.66-14.902 19.692s-9.935 12.241-14.902 18.628c-2.129 3.548-4.435 6.919-6.919 10.112s-5.145 6.209-7.983 9.048c-0.71 1.419-1.774 2.839-3.193 4.258s-2.484 3.193-3.193 5.322c-1.419 1.419-2.661 2.839-3.726 4.258s-1.951 2.839-2.661 4.258c-1.419 1.419-2.661 2.839-3.726 4.258s-2.306 2.839-3.726 4.258c-1.419 1.419-2.839 2.661-4.258 3.726s-2.839 2.306-4.258 3.726c-2.839 2.129-5.854 4.080-9.048 5.854s-6.209 3.726-9.048 5.854c-3.548 2.839-6.742 5.322-9.58 7.451s-6.032 4.258-9.58 6.387c-2.838 2.129-6.032 4.080-9.58 5.854s-7.096 3.371-10.645 4.79c-7.096 2.839-14.193 5.677-21.289 8.516s-14.547 4.967-22.353 6.387c-7.806 2.129-15.612 3.371-23.418 3.726s-15.612 0.177-23.418-0.532c-4.258 0-8.338-0.355-12.241-1.064s-7.983-1.064-12.241-1.064c-3.548 0-7.274-0.177-11.177-0.532s-7.983-0.887-12.241-1.597c-3.548-0.71-7.274-1.597-11.177-2.661s-7.629-2.306-11.177-3.726c-3.548-1.419-7.096-2.839-10.644-4.258s-7.096-2.839-10.644-4.258c-7.806-2.839-15.612-5.322-23.418-7.451s-15.257-4.258-22.353-6.387c-4.258-1.419-8.338-2.661-12.241-3.726s-7.629-2.306-11.177-3.726c-4.258-1.419-8.161-2.661-11.709-3.726s-7.451-1.951-11.709-2.661c-3.548-1.419-7.274-2.661-11.177-3.726s-7.629-2.306-11.177-3.726c-3.548-1.419-6.919-3.016-10.112-4.79s-6.209-3.726-9.048-5.854c-2.839-2.839-5.677-5.5-8.516-7.983s-6.032-5.145-9.58-7.983c-1.419-1.419-2.661-2.661-3.726-3.726s-2.306-2.306-3.726-3.726c-1.419-1.419-2.839-2.838-4.258-4.258s-2.839-2.839-4.258-4.258c-1.419-1.419-2.661-2.839-3.726-4.258s-2.661-2.484-4.79-3.193c-0.71-0.71-1.419-1.419-2.129-2.129s-1.419-1.419-2.129-2.129c0 0-0.355 0-1.064 0 0-0.71 0-1.064 0-1.064 0-0.71 0-1.242 0-1.597s-0.355-0.887-1.064-1.597c-0.71-3.548-1.774-7.274-3.193-11.177s-3.193-7.629-5.322-11.177c-0.71-1.419-1.419-3.016-2.129-4.79s-1.419-3.726-2.129-5.854c-0.71-0.71-1.242-1.597-1.597-2.661s-0.532-1.951-0.532-2.661c0-0.71-0.177-1.242-0.532-1.597s-0.532-0.532-0.532-0.532c0-0.71 0-1.064 0-1.064s-0.355-0.355-1.064-1.064c0 0 0 0 0 0 0-0.71 0-1.242 0-1.597s0-0.887 0-1.597c0-0.71 0-1.242 0-1.597s0-0.887 0-1.597c0.71-0.71 1.064-1.597 1.064-2.661s0-2.306 0-3.726c0-1.419 0-3.193 0-5.322s0-4.258 0-6.387c0-7.806-0.177-15.789-0.532-23.95s-0.532-16.144-0.532-23.95c0-2.839-0.177-5.5-0.532-7.983s-0.177-5.145 0.532-7.983c-4.258 0-8.338 0-12.241 0s-7.983 0-12.241 0c-2.129 0-4.080 0-5.854 0s-3.726 0-5.854 0c-1.419 0-2.661 0-3.726 0s-1.951 0-2.661 0c0 0-0.177 0-0.532 0s-0.532 0-0.532 0c0 0.71 0 1.242 0 1.597s0 0.532 0 0.532c0 1.419-0.177 2.661-0.532 3.726s-0.532 2.306-0.532 3.726c0 0.71 0 1.419 0 2.129s0 1.419 0 2.129c0 0 0 0.177 0 0.532s-0.355 0.887-1.064 1.597c0 0 0 0.355 0 1.064s0 1.064 0 1.064c0 0 0 0 0 0s0 0 0 0 0 0 0 0 0 0 0 0c0.71 4.258 1.419 8.338 2.129 12.241s1.064 7.629 1.064 11.177c0.71 4.258 1.242 8.338 1.597 12.241s0.532 7.983 0.532 12.241c0.71 1.419 1.242 3.193 1.597 5.322s0.532 3.903 0.532 5.322c0.71 2.129 1.419 4.080 2.129 5.854s1.419 3.726 2.129 5.854c0.71 1.419 1.419 3.016 2.129 4.79s1.419 3.726 2.129 5.854c0.71 2.129 1.242 4.080 1.597 5.854s0.887 3.726 1.597 5.854c2.839 7.096 5.677 14.37 8.516 21.821s5.677 14.725 8.516 21.821c1.419 4.258 3.016 8.161 4.79 11.709s3.371 7.096 4.79 10.645c0.71 0.71 1.242 1.597 1.597 2.661s0.887 1.951 1.597 2.661c0 0 0 0.355 0 1.064s0.355 1.064 1.064 1.064c0 0.71 0.177 1.242 0.532 1.597s0.887 0.532 1.597 0.532c1.419 1.419 2.661 2.839 3.726 4.258s2.306 2.839 3.726 4.258c0.71 0.71 1.419 1.419 2.129 2.129s1.419 1.419 2.129 2.129c0 0 0.177 0.177 0.532 0.532s0.887 0.532 1.597 0.532c0 0.71 0.177 1.064 0.532 1.064s0.887 0 1.597 0c2.129 0.71 4.080 1.242 5.854 1.597s3.726 0.532 5.854 0.532c2.129 0.71 4.080 1.242 5.854 1.597s3.726 0.887 5.854 1.597c1.419 0 3.193 0.355 5.322 1.064s3.903 1.419 5.322 2.129c7.806 2.129 15.612 4.435 23.418 6.919s15.612 4.79 23.418 6.919c7.806 2.129 15.612 4.435 23.418 6.919s15.612 4.79 23.418 6.919c7.096 2.129 14.547 4.435 22.353 6.919s15.612 4.79 23.418 6.919c3.548 1.419 7.274 2.839 11.177 4.258s7.629 2.484 11.177 3.193c4.258 1.419 8.161 2.839 11.709 4.258s7.096 2.839 10.644 4.258c4.258 1.419 8.161 2.839 11.709 4.258s7.096 2.839 10.644 4.258c2.129 0.71 4.080 1.419 5.854 2.129s3.726 1.419 5.854 2.129c1.419 0.71 3.193 1.419 5.322 2.129s3.903 1.419 5.322 2.129c2.129 0.71 4.080 1.419 5.854 2.129s3.726 1.419 5.854 2.129c1.419 0.71 3.193 1.242 5.322 1.597s3.903 0.532 5.322 0.532c4.258 0 8.338 0 12.241 0s7.983-0.355 12.241-1.064c3.548 0 7.451-0.355 11.709-1.064s8.161-1.064 11.709-1.064c2.129-0.71 4.080-1.242 5.854-1.597s3.726-0.532 5.854-0.532c1.419 0 2.484 0 3.193 0s1.774 0 3.193 0c0 0 0.177 0 0.532 0s0.887 0 1.597 0c0.71-0.71 1.242-1.064 1.597-1.064s0.532-0.355 0.532-1.064c3.548-1.419 6.919-3.193 10.112-5.322s6.209-4.258 9.048-6.387c2.839-2.839 5.5-5.677 7.983-8.516s5.145-5.322 7.983-7.451c1.419-1.419 2.839-2.839 4.258-4.258s2.839-2.839 4.258-4.258c1.419-1.419 2.839-2.839 4.258-4.258s2.839-2.839 4.258-4.258c2.129-2.839 4.613-5.677 7.451-8.516s5.677-6.032 8.516-9.58c4.967-5.677 9.935-11.532 14.902-17.563s9.58-12.241 13.838-18.628c4.967-6.387 9.935-12.773 14.902-19.16s9.58-12.773 13.838-19.16c4.258-7.096 8.516-14.015 12.773-20.757s8.516-13.306 12.773-19.692c3.548-5.677 6.919-11.354 10.112-17.031s6.564-11.354 10.112-17.031c7.806-12.064 15.080-23.95 21.821-35.659s13.66-23.595 20.757-35.659c-0.71 0-1.419 0-2.129 0s-1.419 0-2.129 0h1.064zM927.133-39.705c0-0.71 0-1.064 0-1.064s0-0.355 0-1.064c0 0-0.177 0-0.532 0s-0.532 0-0.532 0c-0.71 0-1.242 0-1.597 0s-0.887 0-1.597 0c-4.258 0-8.338 0-12.241 0s-7.983 0-12.241 0c-7.806 0-15.789 0-23.95 0s-16.144 0-23.95 0c-4.258 0-8.338 0-12.241 0s-7.983 0-12.241 0c-0.71 0-1.597 0-2.661 0s-2.306 0-3.726 0c0 0-0.355 0-1.064 0s-1.064 0-1.064 0c-0.71 0-1.064 0-1.064 0s-0.355 0-1.064 0c0 0 0 0.177 0 0.532s0 0.532 0 0.532c-0.71 1.419-1.597 3.016-2.661 4.79s-2.306 3.726-3.726 5.854c-3.548 7.096-7.274 14.015-11.177 20.757s-7.983 13.66-12.241 20.757c-4.258 7.096-8.516 14.015-12.773 20.757s-8.516 13.306-12.773 19.692c-4.258 7.096-8.516 14.015-12.773 20.757s-8.516 13.306-12.773 19.692c-4.258 7.096-8.516 14.015-12.773 20.757s-8.516 13.66-12.773 20.757c-2.129 2.839-4.258 6.032-6.387 9.58s-4.613 6.742-7.451 9.58c-2.129 3.548-4.258 6.919-6.387 10.112s-4.613 6.209-7.451 9.048c-4.258 6.387-8.516 12.773-12.773 19.16s-9.225 12.773-14.902 19.16c-4.967 5.677-10.29 11.177-15.967 16.499s-10.999 10.822-15.967 16.499c-5.677 5.677-10.999 11.354-15.967 17.031s-10.645 10.999-17.031 15.967c-1.419 1.419-3.016 2.661-4.79 3.726s-3.371 1.951-4.79 2.661c0 0-0.355 0.177-1.064 0.532s-1.064 0.532-1.064 0.532c-0.71 0.71-1.242 1.242-1.597 1.597s-0.532 0.532-0.532 0.532c-0.71 0.71-1.597 1.242-2.661 1.597s-1.951 0.887-2.661 1.597c-1.419 0.71-3.016 1.597-4.79 2.661s-3.371 1.951-4.79 2.661c-2.129 0.71-4.080 1.419-5.854 2.129s-3.371 1.419-4.79 2.129c-4.258 0.71-8.161 1.597-11.709 2.661s-7.451 1.597-11.709 1.597c-3.548 0.71-7.451 1.419-11.709 2.129s-8.161 1.064-11.709 1.064c-4.258 0.71-8.338 1.242-12.241 1.597s-7.983 0.532-12.241 0.532c-3.548 0-7.274-0.177-11.177-0.532s-7.983-0.887-12.241-1.597c-2.129 0-4.080-0.177-5.854-0.532s-3.726-0.532-5.854-0.532c-1.419-0.71-3.193-1.419-5.322-2.129s-3.903-1.419-5.322-2.129c-4.258-0.71-8.161-1.774-11.709-3.193s-7.096-2.839-10.644-4.258c-7.806-2.839-15.435-5.677-22.886-8.516s-14.725-5.677-21.821-8.516c-7.806-2.129-15.612-4.435-23.418-6.919s-15.257-5.145-22.353-7.983c-7.806-2.129-15.612-4.435-23.418-6.919s-15.612-4.79-23.418-6.919c-7.096-2.839-14.547-5.322-22.353-7.451s-15.612-4.613-23.418-7.451c-7.806-2.129-15.612-4.080-23.418-5.854s-15.257-3.726-22.353-5.854c-4.258-1.419-8.338-2.661-12.241-3.726s-7.629-2.306-11.177-3.726c-1.419 0-3.016-0.355-4.79-1.064s-3.726-1.774-5.854-3.193c-1.419-0.71-2.839-1.597-4.258-2.661s-2.839-2.306-4.258-3.726c-1.419-0.71-2.661-1.774-3.726-3.193s-2.306-2.839-3.726-4.258c-0.71-0.71-1.419-1.419-2.129-2.129s-1.419-1.419-2.129-2.129c0 0-0.177-0.177-0.532-0.532s-0.532-0.887-0.532-1.597c-0.71 0-1.242 0-1.597 0s-0.887-0.355-1.597-1.064c-0.71 0-1.242-0.177-1.597-0.532s-0.887-0.532-1.597-0.532c0 0-0.177 0-0.532 0s-0.532 0-0.532 0c0 0-0.177-0.177-0.532-0.532s-0.532-0.532-0.532-0.532c0-0.71-0.355-1.419-1.064-2.129s-1.064-1.419-1.064-2.129c-0.71-2.129-1.597-4.080-2.661-5.854s-1.951-3.371-2.661-4.79c-3.548-7.096-6.919-14.37-10.112-21.821s-6.209-14.725-9.048-21.821c-1.419-2.839-2.661-5.5-3.726-7.983s-1.951-5.145-2.661-7.983v212.89c7.096 0.71 14.547 1.242 22.353 1.597s15.257 1.242 22.353 2.661c4.258 0.71 8.161 1.597 11.709 2.661s7.096 1.951 10.644 2.661c4.258 1.419 8.161 2.839 11.709 4.258s7.096 2.839 10.644 4.258c3.548 1.419 7.096 2.839 10.644 4.258s7.096 2.484 10.644 3.193c4.258 1.419 8.338 2.661 12.241 3.726s7.629 2.306 11.177 3.726c7.806 2.129 15.435 4.435 22.886 6.919s15.080 4.79 22.886 6.919c7.806 2.129 15.612 4.258 23.418 6.387s15.612 3.903 23.418 5.322c7.806 2.129 15.612 3.903 23.418 5.322s15.612 2.839 23.418 4.258c7.806 1.419 15.789 2.661 23.95 3.726s16.144 2.306 23.95 3.726c3.548 0 7.451 0.177 11.709 0.532s8.161 0.532 11.709 0.532c4.258 0 8.338-0.177 12.241-0.532s7.629-0.887 11.177-1.597c4.258-0.71 8.338-1.419 12.241-2.129s7.983-1.419 12.241-2.129c3.548 0 7.451-0.177 11.709-0.532s8.161-0.887 11.709-1.597c8.516-0.71 16.676-1.419 24.482-2.129s15.612-1.419 23.418-2.129c4.258-0.71 8.338-1.242 12.241-1.597s7.629-0.887 11.177-1.597c2.129-0.71 4.258-1.242 6.387-1.597s3.903-0.532 5.322-0.532c0.71 0 1.242-0.177 1.597-0.532s0.532-0.532 0.532-0.532c0.71-0.71 1.242-1.242 1.597-1.597s0.532-0.532 0.532-0.532c0.71-0.71 1.419-1.419 2.129-2.129s1.774-1.419 3.193-2.129c2.839-2.129 5.854-4.435 9.048-6.919s6.209-4.79 9.048-6.919c2.839-2.129 5.854-4.435 9.048-6.919s6.209-4.79 9.048-6.919c0.71-0.71 1.419-1.419 2.129-2.129s1.419-1.419 2.129-2.129c0.71-0.71 1.242-1.419 1.597-2.129s0.887-1.419 1.597-2.129c0.71-1.419 1.597-3.016 2.661-4.79s2.306-3.371 3.726-4.79c2.129-2.839 4.435-5.854 6.919-9.048s5.145-6.209 7.983-9.048c4.967-5.677 9.935-11.532 14.902-17.563s9.935-11.886 14.902-17.563c2.129-3.548 4.258-6.741 6.387-9.58s4.258-6.032 6.387-9.58c2.129-3.548 4.258-7.096 6.387-10.645s3.903-6.742 5.322-9.58c4.258-7.096 8.338-14.193 12.241-21.289s7.983-14.193 12.241-21.289c4.258-7.096 8.338-14.015 12.241-20.757s7.983-13.66 12.241-20.757c4.258-6.387 8.516-12.951 12.773-19.692s8.516-13.66 12.773-20.757c2.129-3.548 4.258-6.919 6.387-10.112s4.258-6.209 6.387-9.048c1.419-2.129 2.661-3.903 3.726-5.322s2.306-3.193 3.726-5.322c0 0 0.177-0.177 0.532-0.532s0.532-0.532 0.532-0.532c0-0.71 0.177-1.242 0.532-1.597s0.887-0.532 1.597-0.532c0.71-0.71 1.419-1.242 2.129-1.597s1.419-0.887 2.129-1.597c6.387-4.967 12.419-9.935 18.096-14.902s11.354-9.935 17.031-14.902c0.71-0.71 1.419-1.419 2.129-2.129s1.064-1.419 1.064-2.129c0.71-0.71 1.242-1.064 1.597-1.064s0.532 0 0.532 0c0.71 0 1.419-0.177 2.129-0.532s1.064-0.532 1.064-0.532c2.129 0 4.080-0.355 5.854-1.064s3.726-1.419 5.854-2.129c3.548-0.71 7.096-1.774 10.644-3.193s7.451-2.839 11.709-4.258c3.548-1.419 7.096-3.016 10.645-4.79s7.096-3.371 10.644-4.79c2.129-0.71 4.080-1.419 5.854-2.129s3.371-1.419 4.79-2.129c0.71 0 1.242-0.177 1.597-0.532s0.532-0.532 0.532-0.532c0 0 0.177 0 0.532 0s0.532 0 0.532 0c0-1.419 0-2.661 0-3.726s0-1.951 0-2.661c0-7.096 0-14.193 0-21.289s0-14.193 0-21.289c0-0.71 0-1.597 0-2.661s0-1.951 0-2.661v0zM665.279 787.373c0 0 0 0 0 0h274.628v-171.376c-1.419 0-3.193 0.177-5.322 0.532s-2.129 0.532 0 0.532c-3.548 0.71-4.258 0.887-2.129 0.532s1.419-0.177-2.129 0.532c-2.129 0-4.080 0.355-5.854 1.064s-3.371 1.419-4.79 2.129c-1.419 0-2.484 0.177-3.193 0.532s-1.419 0.887-2.129 1.597c-0.71 0.71-1.419 1.242-2.129 1.597s-1.419 0.887-2.129 1.597c-1.419 1.419-3.016 2.661-4.79 3.726s-3.371 2.306-4.79 3.726c-1.419 1.419-3.016 2.661-4.79 3.726s-3.371 1.951-4.79 2.661c-6.387 4.258-12.951 8.693-19.692 13.306s-13.306 9.048-19.692 13.306c-2.129 0.71-3.903 1.597-5.322 2.661s-3.193 2.306-5.322 3.726c-1.419 0.71-3.016 1.597-4.79 2.661s-3.371 1.951-4.79 2.661c-2.129 0.71-3.903 1.597-5.322 2.661s-2.839 2.306-4.258 3.726c-0.71 1.419-1.774 2.839-3.193 4.258s-2.484 2.839-3.193 4.258c-2.129 3.548-4.435 6.919-6.919 10.112s-4.79 6.209-6.919 9.048c-2.129 2.839-4.613 5.322-7.451 7.451s-5.677 4.258-8.516 6.387c-3.548 2.129-6.919 4.080-10.112 5.854s-6.564 3.726-10.112 5.854c-3.548 1.419-6.919 3.193-10.112 5.322s-6.564 3.903-10.112 5.322c-3.548 2.129-7.096 4.258-10.644 6.387s-6.742 3.903-9.58 5.322c-3.548 2.129-7.096 4.080-10.644 5.854s-7.096 3.371-10.644 4.79c-3.548 2.129-7.096 3.903-10.645 5.322s-7.096 2.839-10.644 4.258c-3.548 1.419-6.387 2.484-8.516 3.193s-4.967 1.774-8.516 3.193v0z" />
<glyph unicode="&#xe93e;" glyph-name="star" d="M757.205-119.467c-11.939 0-23.611 2.665-34.43 7.781l-5.543 2.718-218.893 124.876-218.893-124.93-5.65-2.825c-26.009-12.152-57.828-9.274-81.066 7.622-24.997 18.121-37.362 49.727-31.232 80.426l51.006 247.408-186.382 169.593-4.157 4.37c-19.987 21.106-27.129 51.699-18.121 79.52 9.22 27.928 33.045 48.607 61.825 53.777l5.436 0.959 250.552 27.768 103.717 229.713 3.198 5.863c13.964 25.21 40.719 41.092 69.767 41.092 28.941 0 55.643-15.883 69.767-41.039l3.198-5.969 103.824-229.819 250.552-27.768 5.543-0.906c28.727-5.33 52.551-25.903 61.719-53.937 9.061-27.768 1.865-58.521-18.121-79.627l-4.157-4.157-186.435-169.7 51.006-246.875c6.023-31.286-6.289-62.785-31.446-80.959-13.431-9.7-29.633-14.977-46.582-14.977zM322.883 230.379c-2.079-9.7-24.837-119.707-45.037-217.561l194.163 110.699c16.362 9.327 36.456 9.327 52.765 0l194.163-110.593-45.25 218.734c-3.784 18.441 2.398 37.575 16.416 50.206l165.223 150.406-222.145 24.57c-18.707 2.079-34.857 13.857-42.691 31.126l-92.098 203.65-91.992-203.65c-7.781-17.162-23.984-28.941-42.691-31.126l-222.145-24.57 165.223-150.406c14.497-13.111 20.466-32.885 16.096-51.486z" />
<glyph unicode="&#xe93f;" glyph-name="star-filler" d="M23.103 396.53l190.729-174.835-52.98-243.71c-5.298-31.788 5.298-63.576 31.788-79.471 10.596-10.596 26.49-15.894 42.384-15.894 10.596 0 21.192 0 31.788 5.298 0 0 5.298 0 5.298 5.298l217.219 121.855 217.219-121.855c0 0 5.298 0 5.298-5.298 26.49-10.596 58.278-10.596 79.471 5.298 26.49 15.894 37.086 47.682 31.788 79.471l-52.98 243.71c21.192 15.894 52.98 47.682 84.769 79.471l100.663 90.067 5.298 5.298c21.192 21.192 26.49 52.98 15.894 79.471s-31.788 47.682-63.576 52.98h-5.298l-249.008 26.49-100.663 227.816c0 0 0 5.298-5.298 5.298-5.298 37.086-31.788 52.98-58.278 52.98s-52.98-15.894-68.874-42.384c0 0 0-5.298-5.298-5.298l-100.663-227.816-249.008-26.49h-5.298c-26.49-5.298-52.98-26.49-63.576-52.98-5.298-31.788 0-63.576 21.192-84.769z" />
<glyph unicode="&#xe940;" glyph-name="stats" d="M0 65.829h146.286v-36.571h-73.143v-73.143h73.143v-36.571h-146.286v-73.143h219.429v292.571h-219.429v-73.143zM0 431.543h131.657l-131.657-153.6v-65.829h219.429v73.143h-131.657l131.657 153.6v65.829h-219.429v-73.143zM73.143 577.829h73.143v292.571h-146.286v-73.143h73.143v-219.429zM365.714 797.257v-146.286h658.286v146.286h-658.286zM365.714-80.457h658.286v146.286h-658.286v-146.286zM365.714 285.257h658.286v146.286h-658.286v-146.286z" />
<glyph unicode="&#xe941;" glyph-name="sun" d="M566.479 794.253l-54.481-159.848-54.481 159.848c-10.242 30.128 5.775 62.762 35.903 73.059 30.074 10.242 62.817-5.829 73.059-35.903 4.25-12.531 3.923-25.552 0-37.156zM76.147 412.884l159.848-54.481-159.848-54.481c-30.128-10.242-62.762 5.775-73.059 35.903-10.242 30.074 5.829 62.817 35.903 73.059 12.531 4.25 25.552 3.923 37.156 0zM457.516-77.448l54.481 159.848 54.481-159.848c10.242-30.128-5.775-62.762-35.903-73.059-30.074-10.242-62.762 5.775-73.059 35.903-4.25 12.531-3.923 25.552 0 37.156zM947.848 304.030l-159.848 54.481 159.848 54.481c30.128 10.242 62.762-5.775 73.059-35.903 10.242-30.074-5.775-62.762-35.903-73.059-12.531-4.25-25.552-3.923-37.156 0zM242.315 705.122l74.476-151.512-151.512 74.476c-28.548 14.002-40.316 48.543-26.314 77.037 14.056 28.494 48.543 40.262 77.037 26.26 11.877-5.829 20.866-15.255 26.314-26.26zM165.278 88.775l151.512 74.476-74.476-151.512c-14.002-28.494-48.543-40.262-77.037-26.26-28.494 14.056-40.262 48.543-26.26 77.037 5.829 11.877 15.255 20.812 26.26 26.26zM781.625 11.738l-74.476 151.512 151.512-74.476c28.494-14.002 40.262-48.543 26.26-77.037-14.056-28.494-48.543-40.262-77.037-26.26-11.877 5.83-20.812 15.255-26.26 26.26zM858.607 628.194l-151.567-74.53 74.53 151.567c14.002 28.494 48.543 40.262 77.037 26.26 28.494-14.056 40.262-48.543 26.205-77.091-5.775-11.822-15.2-20.757-26.205-26.205zM511.997 113.237c-135.168 0-245.166 109.998-245.166 245.166s109.998 245.166 245.166 245.166c135.168 0 245.166-109.998 245.166-245.166s-109.998-245.166-245.166-245.166zM511.997 494.606c-75.13 0-136.203-61.074-136.203-136.203s61.074-136.203 136.203-136.203c75.13 0 136.203 61.074 136.203 136.203s-61.074 136.203-136.203 136.203z" />
<glyph unicode="&#xe942;" glyph-name="trash" d="M377.905 465.067v-384c0-6.222-2-11.333-6-15.333s-9.111-6-15.333-6h-42.667c-6.222 0-11.333 2-15.333 6s-6 9.111-6 15.333v384c0 6.222 2 11.333 6 15.333s9.111 6 15.333 6h42.667c6.222 0 11.333-2 15.333-6s6-9.111 6-15.333zM548.571 465.067v-384c0-6.222-2-11.333-6-15.333s-9.111-6-15.333-6h-42.667c-6.222 0-11.333 2-15.334 6s-6 9.111-6 15.333v384c0 6.222 2 11.333 6 15.333s9.111 6 15.334 6h42.667c6.222 0 11.333-2 15.333-6s6-9.111 6-15.333zM719.238 465.067v-384c0-6.222-2-11.333-6-15.333s-9.111-6-15.334-6h-42.667c-6.222 0-11.333 2-15.333 6s-6 9.111-6 15.333v384c0 6.222 2 11.333 6 15.333s9.111 6 15.333 6h42.667c6.222 0 11.333-2 15.334-6s6-9.111 6-15.333zM804.571-17.6v632h-597.333v-632c0-9.778 1.556-18.778 4.667-27s6.333-14.222 9.667-18c3.333-3.778 5.667-5.667 7-5.667h554.667c1.333 0 3.666 1.889 7 5.667s6.556 9.778 9.667 18c3.111 8.222 4.666 17.222 4.666 27zM356.571 699.733h298.666l-32 78c-3.111 4-6.889 6.444-11.333 7.333h-211.333c-4.444-0.889-8.222-3.334-11.333-7.333l-32.667-78zM975.238 678.4v-42.667c0-6.222-2-11.333-6-15.334s-9.111-6-15.334-6h-64v-632c0-36.889-10.445-68.778-31.333-95.667s-46-40.333-75.333-40.333h-554.667c-29.333 0-54.444 13-75.333 39s-31.333 57.444-31.333 94.333v634.667h-64c-6.222 0-11.333 2-15.333 6s-6 9.111-6 15.334v42.667c0 6.222 2 11.333 6 15.333s9.111 6 15.333 6h206l46.667 111.333c6.667 16.445 18.667 30.444 36 42s34.889 17.333 52.667 17.333h213.334c17.777 0 35.333-5.778 52.666-17.333s29.333-25.556 36-42l46.666-111.333h206c6.222 0 11.333-2 15.334-6s6-9.111 6-15.333z" />
<glyph unicode="&#xe943;" glyph-name="undo" d="M525.256 564.376c-132.565 0-252.623-49.524-345.169-130.064l-180.088 180.088v-450.22h450.22l-181.088 181.088c69.534 58.028 158.077 94.046 256.125 94.046 177.086 0 327.66-115.556 380.186-275.134l118.558 39.019c-69.534 209.602-266.13 361.176-498.744 361.176z" />
<glyph unicode="&#xe944;" glyph-name="unlocked" horiz-adv-x="683" d="M401.664 290.731c33.323-33.323 33.323-87.339 0-120.661-5.376-5.376-11.435-9.557-17.664-13.227v-97.109c0-25.6-17.067-42.667-42.667-42.667s-42.667 17.067-42.667 42.667v97.109c-6.272 3.669-12.288 7.851-17.664 13.227-33.323 33.323-33.323 87.339 0 120.661s87.339 33.323 120.661 0v0zM597.333 17.067c0-46.933-38.4-85.333-85.333-85.333h-341.333c-46.933 0-85.333 38.4-85.333 85.333v298.667c0 46.933 38.4 85.333 85.333 85.333h341.333c46.933 0 85.333-38.4 85.333-85.333v-298.667zM512 486.4h-341.333v128c0 93.867 76.8 170.667 170.667 170.667s170.667-76.8 170.667-170.667c0-25.6 17.067-42.667 42.667-42.667s42.667 17.067 42.667 42.667c0 140.8-110.933 256-256 256-140.8 0-256-115.2-256-256v-151.851c-50.731-29.653-85.333-84.139-85.333-146.816v-298.667c0-93.867 76.8-170.667 170.667-170.667h341.333c93.867 0 170.667 76.8 170.667 170.667v298.667c0 93.867-76.8 170.667-170.667 170.667v0z" />
<glyph unicode="&#xe945;" glyph-name="warning" d="M989.729 214.62l-307.963 513.307c-40.423 67.354-102.255 105.901-169.765 105.901s-129.343-38.548-169.765-105.797l-307.963-513.411c-40.944-68.187-45.424-140.907-12.241-199.509 33.13-58.655 97.827-92.306 177.423-92.306h625.095c79.595 0 144.293 33.651 177.423 92.254 33.182 58.603 28.702 131.322-12.241 199.562zM512 102.572c-44.486 0-80.741 36.203-80.741 80.689 0 44.538 36.203 80.793 80.741 80.793s80.741-36.255 80.741-80.793c0-44.486-36.256-80.689-80.741-80.689zM597.065 489.297c-0.573-1.615-72.98-180.652-72.98-180.652-1.979-4.897-6.772-8.126-12.033-8.126s-10.054 3.23-12.033 8.126l-72.459 179.090c-4.688 12.137-6.72 23.076-6.72 34.12 0 50.268 40.892 91.16 91.16 91.16s91.16-40.892 91.16-91.16c0-11.043-2.032-21.982-6.095-32.557z" />
</font>
</defs>
</svg>
